<?xml version="1.0" encoding="utf-8"?>
<!-- Generator: Adobe Illustrator 25.2.1, SVG Export Plug-In . SVG Version: 6.00 Build 0)  -->
<svg version="1.1" id="Layer_1" xmlns="http://www.w3.org/2000/svg" xmlns:xlink="http://www.w3.org/1999/xlink" x="0px" y="0px"
	 viewBox="0 0 500 500" style="enable-background:new 0 0 500 500;" xml:space="preserve">
	<style type="text/css">
		.st0{display:none;fill:#E2CFCF;}
		.st1{fill:#A51A1D;}
	</style>
	<rect x="0.5" y="-0.7" class="st0" width="500" height="500"/>
	<g>
		<g>
			<path class="st1" d="M228.6,460.1l18.4,18l4.5,8.2l-3.7,10.6l9.8-4.9l10.2-23.3V454l10.2,4.5l-11,19.2l16.3-11.8l4.5-16.8
				l15.9-10.6v-30.6l30.2-25.3h10.6l9.8-10.2h31.1l12.3-8.6l8.6-12.7l14.7-17.2v-12.3l10.2-13.1v-6.9l4.9-12.7V266l-2.9-9.8l6.1-12.7
				l3.7,6.9l10.6-11l4.1-14.7l23.3-15.9l16.3-29v-15.9l-7.8-22.5L473,139l-13.9-9l-17.2-13.9l-15.9-6.9l-14.3,0.8l-16.8-6.9h-14.7
				l-15.9,12.3l0.4-12.3V92.8l-5.7-4.9h-14.7l-11-8.2l-11.8,2l-4.9,8.6l-18,5.7l-13.9,0.8l-2.5-9l-18.8,3.7l12.3-20.4l14.3-12.3
				l6.9-9l-9-4.1L283.4,27V16.8h-10.2l-13.1,26.1l-14.3-0.8L229.9,38l-12.7,2.5v6.9l-23.3,0.8l-10.2,8.2l-8.6-4.9l-3.7-10.6V16.8
				l-4.9-2.5V1.7l-10.2,9.8l-15.1,8.6L131,20.9V27l-20-9l-3.7,3.7l5.7,2.5l-0.4,13.1l9.8,5.7l2.9,4.9l-8.6,0.8l-13.1,11.8l-11.8,5.7
				l-13.9-6.9l-2.5-11.8l-11.8,4.9H44.4v10.2L54.6,63v4.5l-7.8,0.4l-2.5,4.9l4.1,10.6l0.4,13.9l-0.8,13.9l-3.7,16.3l-7.8,4.5
				l-12.3,2.5l-10.2,7.8l-4.5,13.1l-6.1,10.2v13.9l2,8.2l6.5,6.1l8.2,11.8l8.2,0.8l8.6-6.1l2.5,18.4l12.3-2.5l15.1,0.8l0.8-7.8
				l16.8-9.8l16.3-0.4l0.8,15.9l8.6,14.7l11.8,4.5l11,6.1l12.7,6.5l7.8-2.5l11,6.1l0.8,14.3l0.4,15.9l22.5,0.4l-1.6,9.8l9,10.6v10.2
				l-4.5,11.8l4.9,4.9l-0.8,24.9l13.9,2.5l11.8,3.7l4.1,15.1l10.6,1.6l3.7,4.1l-3.7,17.2l6.1,2.5l4.9,8.6l-4.5,12.7l-13.9,6.1
				l-12.7,11.8L202.5,454h8.6l9,6.9L228.6,460.1z"/>
			<path class="st1" d="M288.3,85.4l9,4.9l10.6-2.5l11-14.7l-6.9-2.5l-4.5,10.2l-1.6-9.8h-12.7l-4.9,3.7V85.4z"/>
			<path class="st1" d="M269.5,85.4l8.2-8.6l4.1,4.1L269.5,85.4z"/>
		</g>
	</g>
</svg>
