<?xml version="1.0" encoding="utf-8"?>
<!-- Generator: Adobe Illustrator 25.2.1, SVG Export Plug-In . SVG Version: 6.00 Build 0)  -->
<svg version="1.1" id="Layer_1" xmlns="http://www.w3.org/2000/svg" xmlns:xlink="http://www.w3.org/1999/xlink" x="0px" y="0px"
	 viewBox="0 0 500 500" style="enable-background:new 0 0 500 500;" xml:space="preserve">
<style type="text/css">
	.st0{fill:#A51A1D;}
</style>
<path class="st0" d="M481.6,108c-67.7,34.5-151.6,35.2-220.3,2.6V89c0-4-2.4-7.8-5.9-9.5l0,0C179.8,41,85.5,41,9.9,79.5l0,0
	C6.4,81.4,4,85,4,89v280.6c0,8.1,8.6,13.3,15.7,9.5l0,0c67.7-34.5,151.6-35.2,220.3-2.6v21.6c0,4,2.4,7.6,5.9,9.5l0,0
	c37.8,19.2,80.3,29.5,122.6,29.5c42.5,0,84.8-10.2,122.9-29.5l0,0c3.6-1.9,5.9-5.5,5.9-9.5V117.3C497.1,109.7,488.7,104.5,481.6,108
	L481.6,108z M240,243c-0.2-0.2-0.5-0.5-0.5-0.7c0.2,0,0.5,0.2,0.5,0.2V243z M240,155.3c-22.1-6.2-41.6,3.8-51.3,22.1
	c7.1,0.7,14.3,2.1,21.4,4.5c10.5,3.3,20.4,8.8,29.9,15.2v9.5c-9.5-6.4-19.5-11.9-29.9-15.2c-8.6-2.6-16.9-4-25.2-4.5
	c-1.9,5.9-3.1,12.1-3.1,19c-0.2,34.9,26.4,67.7,58.2,87.4v30.4C190.5,268.4,135.6,229,83.1,206.2c52.5-43.2,107.2-69.9,156.8-80.3
	L240,155.3z M226.2,224.2c-0.7-0.7-1.2-1.2-1.9-1.9c-0.7,0.2-1.2,0.2-1.9,0.5c0.2-0.7,0.2-1.4,0.5-1.9c-0.5-0.7-1.2-1.4-1.7-2.1
	c0.7,0.2,1.4,0.5,2.1,0.7c0.2-0.7,0.5-1.2,1-1.9c0.2,0.7,0.5,1.7,0.7,2.4c0.7,0.2,1.4,0.7,2.1,1c-0.5,0.2-1.2,0.5-1.7,0.7
	C225.9,222.6,225.9,223.3,226.2,224.2L226.2,224.2z M224.5,260.1c-0.7-0.7-1.4-1.4-2.1-2.4c-0.7,0.2-1.4,0.5-2.4,0.7
	c0.2-0.7,0.5-1.7,0.7-2.4c-0.7-0.7-1.4-1.7-2.1-2.4c1,0.2,1.9,0.5,2.6,0.7c0.5-0.7,0.7-1.4,1-2.1c0.2,1,0.7,1.9,1,2.9
	c1,0.5,1.9,0.7,2.6,1.2c-0.7,0.2-1.4,0.7-2.1,1C224,258,224.3,258.9,224.5,260.1L224.5,260.1z M216.7,242.1
	c-0.7-0.7-1.2-1.2-1.9-1.9c-0.7,0.2-1.2,0.5-1.9,0.5c0.2-0.7,0.5-1.4,0.5-2.1c-0.5-0.7-1.2-1.4-1.7-1.9c0.7,0.2,1.4,0.5,2.4,0.5
	c0.2-0.7,0.5-1.2,0.7-1.9c0.2,0.7,0.5,1.7,0.7,2.4c0.7,0.2,1.4,0.7,2.4,1c-0.7,0.2-1.2,0.5-1.9,0.7
	C216.2,240.4,216.4,241.4,216.7,242.1L216.7,242.1z M213.8,248.2c-0.5-0.5-1.2-1.2-1.7-1.7c-0.5,0.2-1.2,0.5-1.7,0.5
	c0.2-0.5,0.2-1.2,0.5-1.7c-0.5-0.5-1-1.2-1.4-1.7c0.7,0.2,1.2,0.2,1.9,0.5c0.2-0.5,0.5-1.2,0.7-1.7c0.2,0.7,0.5,1.4,0.7,2.1
	c0.7,0.2,1.2,0.5,1.9,0.7c-0.5,0.2-1,0.5-1.4,0.7C213.6,246.8,213.8,247.5,213.8,248.2L213.8,248.2z M208.4,227.1
	c-0.5-0.5-1-0.7-1.2-1.2c-0.5,0.2-0.7,0.2-1.2,0.5c0-0.5,0.2-1,0.5-1.2c-0.5-0.5-0.7-0.7-1.2-1.2c0.5,0,1,0.2,1.4,0.2
	c0.2-0.5,0.5-0.7,0.5-1.2c0.2,0.5,0.5,1,0.5,1.7c0.5,0.2,1,0.5,1.4,0.5c-0.5,0.2-0.7,0.5-1.2,0.5
	C208.1,226.1,208.1,226.6,208.4,227.1z M202.9,231.8c-0.7-0.7-1.4-1.4-2.4-2.1c-0.7,0.2-1.4,0.5-2.4,0.7c0.2-0.7,0.5-1.7,0.7-2.4
	c-0.7-0.7-1.4-1.7-2.1-2.4c1,0.2,1.9,0.5,2.9,0.5c0.2-0.7,0.7-1.4,1-2.4c0.2,1,0.7,1.9,1,2.9c1,0.2,1.9,0.7,2.9,1
	c-0.7,0.5-1.4,0.7-2.1,1.2C202.4,229.9,202.7,230.9,202.9,231.8L202.9,231.8z M195.3,235.2c-0.7-0.5-1.2-1.2-1.9-1.7
	c-0.7,0.2-1.2,0.5-1.9,0.7c0.2-0.7,0.5-1.4,0.5-2.1c-0.5-0.7-1.2-1.2-1.9-1.9c0.7,0.2,1.7,0.2,2.4,0.5c0.2-0.7,0.5-1.2,0.7-1.9
	c0.2,0.7,0.5,1.4,0.7,2.4c0.7,0.2,1.7,0.5,2.4,0.7c-0.5,0.5-1.2,0.7-1.7,1C194.8,233.7,195,234.5,195.3,235.2L195.3,235.2z
	 M194.8,199.1c-0.7,0.2-1.4,0.5-2.4,1c0.2-0.7,0.5-1.7,0.7-2.6c-0.7-0.7-1.4-1.4-2.1-2.1c1,0.2,1.9,0.2,2.9,0.5
	c0.5-0.7,0.7-1.4,1-2.1c0.5,1,0.7,1.9,1,2.9c1,0.2,1.9,0.7,2.6,1c-0.7,0.5-1.4,0.7-2.1,1.2c0.2,1,0.5,1.9,0.7,2.9
	C196.5,200.5,195.8,199.8,194.8,199.1L194.8,199.1z M261.3,332.1c25.7,7.1,47.8-7.8,55.1-32.3c-16.2-17.1-35.4-33-55.1-48.7v-10
	c20.2,15.7,39.9,31.6,57,48.5c0.5-2.6,1-5.2,1-8.1c0-34.9-26.1-67.5-58-87.2v-30.4c49.4,55.6,104.3,94.8,156.6,117.6
	c-52.5,43.2-107.2,69.9-156.6,80.6V332.1z M272,319.1c-0.7-0.7-1.2-1.2-1.9-1.9c-0.7,0.2-1.2,0.2-1.9,0.5c0.2-0.7,0.5-1.4,0.5-1.9
	c-0.5-0.7-1.2-1.4-1.7-2.1c0.7,0.2,1.4,0.5,2.1,0.7c0.2-0.7,0.5-1.2,0.7-1.9c0.2,0.7,0.5,1.7,0.7,2.4c0.7,0.5,1.4,0.7,2.1,1.2
	c-0.5,0.2-1.2,0.5-1.7,0.7C271.6,317.4,271.8,318.1,272,319.1L272,319.1z M268,264.2c-0.5-0.5-1.2-1.2-1.7-1.7c-0.5,0-1,0.2-1.7,0.5
	c0.2-0.7,0.5-1.2,0.5-1.7c-0.5-0.7-1-1.2-1.4-1.9c0.7,0.2,1.2,0.5,1.9,0.7c0.2-0.5,0.5-1,0.7-1.4c0.2,0.7,0.5,1.4,0.7,2.1
	c0.7,0.2,1.2,0.7,1.9,1c-0.5,0.2-1,0.5-1.4,0.7C267.5,262.7,267.8,263.5,268,264.2L268,264.2z M263.7,303.4c0.2-0.5,0.5-1,0.7-1.7
	c0.2,0.7,0.5,1.4,0.7,2.1c0.7,0.2,1.2,0.7,1.9,1c-0.5,0.2-1,0.5-1.4,0.7c0.2,0.7,0.2,1.4,0.5,2.1c-0.5-0.5-1-1.2-1.7-1.7
	c-0.5,0-1,0.2-1.7,0.2c0.2-0.5,0.5-1.2,0.5-1.7c-0.5-0.7-1-1.2-1.4-1.9C262.5,302.7,263.2,303.1,263.7,303.4L263.7,303.4z
	 M278,314.1c-0.5-0.5-1.2-1.2-1.7-1.7c-0.5,0.2-1.2,0.2-1.7,0.5c0.2-0.5,0.5-1.2,0.5-1.7c-0.5-0.5-1-1.2-1.4-1.9
	c0.7,0.2,1.2,0.5,1.9,0.7c0.2-0.5,0.5-1,0.7-1.7c0.2,0.7,0.5,1.4,0.7,2.1c0.7,0.2,1.2,0.5,1.9,0.7c-0.5,0.2-1,0.5-1.4,0.7
	C277.5,312.6,277.7,313.4,278,314.1L278,314.1z M286.1,315.3c-0.5-0.5-1.2-1-1.7-1.7c-0.5,0.2-1,0.2-1.7,0.5
	c0.2-0.5,0.5-1.2,0.5-1.7c-0.5-0.7-1-1.2-1.4-1.7c0.7,0.2,1.2,0.5,1.9,0.5c0.2-0.5,0.5-1.2,0.7-1.7c0.2,0.7,0.5,1.4,0.7,2.1
	c0.7,0.2,1.2,0.5,1.9,0.7c-0.5,0.2-1,0.5-1.4,0.7C285.8,313.8,285.8,314.5,286.1,315.3L286.1,315.3z M283.7,317.9
	c0.2-0.7,0.5-1.2,1-1.9c0.2,0.7,0.5,1.7,1,2.4c0.7,0.2,1.4,0.5,2.1,1c-0.5,0.2-1.2,0.7-1.7,1c0.2,0.7,0.5,1.7,0.5,2.4
	c-0.7-0.7-1.2-1.2-1.9-1.9c-0.7,0.2-1.2,0.5-1.9,0.7c0.2-0.7,0.5-1.4,0.5-2.1c-0.5-0.7-1.2-1.4-1.7-2.1
	C282.3,317.4,283,317.6,283.7,317.9L283.7,317.9z M286.1,329.5c-0.5-0.5-1.2-1.2-1.7-1.7c-0.5,0.2-1.2,0.2-1.7,0.5
	c0.2-0.5,0.2-1.2,0.5-1.7c-0.5-0.5-1-1.2-1.4-1.7c0.7,0.2,1.2,0.5,1.9,0.5c0.2-0.5,0.5-1,0.7-1.7c0.2,0.7,0.5,1.4,0.7,2.1
	c0.7,0.2,1.2,0.5,1.9,0.7c-0.5,0.2-1,0.5-1.4,0.7C285.8,328.1,286.1,328.8,286.1,329.5L286.1,329.5z M292.9,317.4
	c-0.5-0.5-1-1-1.7-1.4c-0.5,0.2-1.2,0.5-1.7,0.5c0.2-0.5,0.2-1.2,0.5-1.7c-0.5-0.5-1-1.2-1.4-1.7c0.7,0.2,1.2,0.5,1.9,0.5
	c0.2-0.5,0.5-1.2,0.7-1.7c0.2,0.7,0.5,1.4,0.7,2.1c0.7,0.2,1.2,0.5,1.9,0.7c-0.5,0.2-1,0.5-1.4,0.7
	C292.5,316.2,292.7,316.9,292.9,317.4L292.9,317.4z M302.9,312.2c-0.7-0.5-1.2-1.2-1.9-1.9c-0.7,0.2-1.2,0.5-1.9,0.7
	c0.2-0.7,0.5-1.4,0.7-2.1c-0.7-0.7-1.2-1.2-1.9-1.9c0.7,0.2,1.7,0.5,2.4,0.5c0.2-0.7,0.5-1.2,0.7-1.9c0.2,0.7,0.5,1.7,1,2.4
	c0.7,0.2,1.7,0.5,2.4,0.7c-0.7,0.2-1.2,0.7-1.9,1C302.7,310.7,302.9,311.5,302.9,312.2L302.9,312.2z M299.8,316.9
	c-0.7-0.5-1.2-1.2-1.9-1.7c-0.7,0.2-1.2,0.5-1.9,0.7c0.2-0.7,0.5-1.4,0.5-2.1c-0.5-0.7-1.2-1.4-1.7-1.9c0.7,0.2,1.4,0.5,2.4,0.5
	c0.2-0.7,0.5-1.2,1-1.9c0.2,0.7,0.5,1.7,1,2.4c0.7,0.2,1.4,0.5,2.4,0.7c-0.5,0.2-1.2,0.7-1.9,1C299.4,315.3,299.6,316.2,299.8,316.9
	L299.8,316.9z M299.8,302.4c0.2,1,0.5,1.9,0.7,2.9c-0.7-0.7-1.7-1.4-2.4-2.1c-0.7,0.2-1.4,0.5-2.1,0.7c0.2-0.7,0.5-1.7,0.7-2.4
	c-0.7-0.7-1.4-1.7-2.1-2.4c1,0.2,1.9,0.5,2.6,0.7c0.2-0.7,0.7-1.4,1-2.4c0.5,1,0.7,1.9,1,2.9c1,0.2,1.9,0.7,2.6,1
	C301.3,301.7,300.6,301.9,299.8,302.4L299.8,302.4z M310.3,307.4c-0.5-0.5-1.2-1-1.7-1.4c-0.5,0.2-1.2,0.5-1.7,0.7
	c0.2-0.5,0.2-1.2,0.5-1.7c-0.5-0.5-1-1.2-1.4-1.7c0.7,0,1.2,0.2,1.9,0.5c0.2-0.5,0.5-1.2,0.7-1.7c0.2,0.7,0.5,1.2,0.7,1.9
	c0.7,0.2,1.2,0.5,1.9,0.5c-0.5,0.2-1,0.7-1.7,1C310.1,306,310.1,306.7,310.3,307.4L310.3,307.4z M273.5,247.1
	c-0.7-0.7-1.4-1.7-2.1-2.4c-0.7,0.2-1.4,0.5-2.1,0.5c0.2-0.7,0.5-1.7,0.7-2.4c-0.7-1-1.4-1.7-1.9-2.6c1,0.2,1.7,0.7,2.6,1
	c0.5-0.7,0.7-1.4,1-2.1c0.2,1,0.7,1.9,1,2.9c1,0.5,1.7,0.7,2.6,1.2c-0.7,0.2-1.4,0.7-1.9,1C273,245.2,273.2,246.1,273.5,247.1
	L273.5,247.1z"/>
</svg>
