<?xml version="1.0" encoding="utf-8"?>
<!-- Generator: Adobe Illustrator 25.2.1, SVG Export Plug-In . SVG Version: 6.00 Build 0)  -->
<svg version="1.1" id="Layer_1" xmlns="http://www.w3.org/2000/svg" xmlns:xlink="http://www.w3.org/1999/xlink" x="0px" y="0px"
	 viewBox="0 0 500 298" style="enable-background:new 0 0 500 298;" xml:space="preserve">
<style type="text/css">
	.st0{fill-rule:evenodd;clip-rule:evenodd;fill:#A51A1D;}
	.st1{fill:#A51A1D;}
</style>
<g>
	<g>
		<path class="st0" d="M346.8,230.6c-11.3-17.3-24.7-28.5-44.2-35.1c0,0-14.5-7.4-53-7.4s-53,7.4-53,7.4
			c-19.5,6.6-32.9,17.6-44.2,35.1c-4.4,6.9-6.9,20.6-7.1,28c0,1.9,0,4.1,0,6.3v12.6v-8.8c0,14,9.6,25.2,21.4,25.2h165.8
			c11.8,0,21.4-11.3,21.4-25.2v8.8v-12.6c0-2.2,0-4.4,0-6.3C353.7,251.2,351.2,237.2,346.8,230.6 M191.2,91.7
			c0,32.4,20.3,80.1,58.5,80.1c37.6,0,58.5-47.8,58.5-80.1s-26.1-59-58.5-59S191.2,59.1,191.2,91.7"/>
		<path class="st1" d="M185.2,180.6c-9.3-12.1-20.9-20-36-25.2c0,0-13.7-7.1-49.4-7.1c-36,0-49.7,7.1-49.7,7.1
			c-18.1,6-30.7,16.5-41.4,32.7c-4.1,6.3-6.3,19.2-6.6,26.1c0,1.9,0,3.8,0,6v3.6c0,13.2,9.1,23.6,20,23.6h100.2
			c1.4-8.2,3.8-17.3,7.7-23.1C144,202.9,161,188.9,185.2,180.6L185.2,180.6z"/>
		<path class="st1" d="M99.8,133.4c35.1,0,54.6-44.7,54.6-74.9C154.4,28,130,3.3,99.8,3.3S45.2,28,45.2,58.5
			C45.2,88.7,64.1,133.4,99.8,133.4z"/>
		<path class="st1" d="M314.2,180.6c9.3-12.1,20.9-20,36-25.2c0,0,13.7-7.1,49.4-7.1c36,0,49.7,7.1,49.7,7.1
			c18.1,6,30.7,16.5,41.4,32.7c4.1,6.3,6.3,19.2,6.6,26.1c0,1.9,0,3.8,0,6v3.6c0,13.2-9.1,23.6-20,23.6H377
			c-1.4-8.2-3.8-17.3-7.7-23.1C355.3,202.9,338.3,188.9,314.2,180.6L314.2,180.6z"/>
		<path class="st1" d="M399.5,133.4c-35.1,0-54.6-44.7-54.6-74.9c0-30.5,24.4-55.2,54.6-55.2s54.6,24.7,54.6,55.2
			C454.1,88.7,435.2,133.4,399.5,133.4L399.5,133.4z"/>
	</g>
</g>
</svg>
