<?xml version="1.0" encoding="utf-8"?>
<!-- Generator: Adobe Illustrator 25.2.1, SVG Export Plug-In . SVG Version: 6.00 Build 0)  -->
<svg version="1.1" id="Layer_1" xmlns="http://www.w3.org/2000/svg" xmlns:xlink="http://www.w3.org/1999/xlink" x="0px" y="0px"
	 viewBox="0 0 500 500" style="enable-background:new 0 0 500 500;" xml:space="preserve">
	<style type="text/css">
		.st0{fill:#A51A1D;}
	</style>
	<g>
		<path class="st0" d="M377.5,236.1c0.4-1.8,0.4-3.5,1.4-5.3c1.1-3.5,4.6-7.4,8.1-13.1c1.8-2.8,2.8-6,3.5-9.2c0.4-3.2,0-6.4-1.1-9.2
			h-1.4c-2.1,5.7-5,9.2-8.8,12c-2.1,1.4-3.9,3.2-6.4,5c-2.1,2.1-4.6,4.6-6.7,7.8c-1.8,3.2-3.2,7.1-3.5,10.6c-0.4,3.5,0,7.1,1.1,10.6
			c1.1,3.5,2.8,7.1,5,9.6c2.1,2.8,4.6,5,6.4,6.7c4.2,3.9,7.1,6.7,8.1,11c1.4,4.2,1.4,9.2-0.4,13.4c-1.8,4.2-5.7,8.1-9.2,13.1
			c-1.8,2.5-3.2,5.3-3.9,8.1c-0.7,2.8-0.7,6-0.7,8.8h1.4c0.7-5.3,2.8-10.3,6.7-13.8c3.5-3.9,8.5-7.1,12-12.4c1.8-2.8,2.8-6,3.2-9.2
			c0.4-3.2,0.7-6.4,0-9.9c-0.7-3.2-1.8-6.7-3.5-9.6c-1.8-2.8-3.9-5.3-5.7-7.4c-3.5-4.2-5.7-7.8-6-11.3V241c0-0.4,0-1.1,0-1.4
			C377.2,238.2,377.5,237.1,377.5,236.1L377.5,236.1z"/>
		<path class="st0" d="M411.5,255.9c0.4-2.1,2.8-5,5-9.2c1.1-2.1,2.1-4.6,2.1-7.1c0.4-2.5-0.4-5-1.4-7.1h-1.4c-2.1,3.9-4.2,6-7.1,7.8
			c-1.4,1.1-3.2,1.8-5,3.2c-1.8,1.4-3.5,3.2-5.3,5.7c-1.4,2.5-2.5,5.3-2.8,8.1s0,5.3,0.7,8.1c0.7,2.8,2.5,5.3,3.9,7.4
			c1.8,2.1,3.5,3.5,5,5c2.8,2.5,5,4.2,5.7,7.1c1.1,2.8,1.1,6,0,8.8c-1.1,2.8-3.5,6-6,9.6s-3.5,8.5-3.2,12.4h1.4
			c0.7-3.9,2.5-7.1,5-9.6c2.5-2.5,6.4-4.6,9.2-8.8c2.8-4.2,3.5-9.2,2.8-14.5c-0.7-5.3-4.2-9.9-6.7-13.1c-2.5-3.2-3.5-5.3-3.5-7.4
			c0-1.1,0-2.5,0.4-3.5C411.2,257.6,411.2,256.6,411.5,255.9L411.5,255.9z"/>
		<g>
			<path class="st0" d="M225.8,132v-3.9c0-42.5-13.8-83.8-39.3-117.8l0,0H80.7l0,0c-27.6,34-42.5,76.1-42.5,119.6v1.8L225.8,132
				L225.8,132z"/>
			<path class="st0" d="M273.5,185.1h-47.8v-35H37.9v330.1c0,5,3.9,8.8,8.8,8.8h170.2c5,0,8.8-3.9,8.8-8.8V352.8L258,327
				c13.8-11,22.3-27.2,23-44.9l4.2-85.6C285.2,190.4,279.9,185.1,273.5,185.1z M115.4,476.3H51.7V161.1h63.7V476.3z M261.9,272.1
				c0,13.8-5.7,27.2-15.6,37.1l-20.5,20.2v-121h27.6c4.6,0,8.1,3.5,8.1,8.1L261.9,272.1L261.9,272.1z"/>
		</g>
		<path class="st0" d="M458.6,333c-1.8-1.8-3.9-2.8-6.4-2.8l0,0H321.7c-2.5,0-4.6,1.1-6.4,2.8c-1.8,1.8-2.5,4.2-2.5,6.7l1.4,22.3
			h-31.8c-2.5,0-5,1.1-6.4,2.8c-1.8,1.8-2.5,4.2-2.1,6.7l7.8,78.9c0.4,4.6,4.2,7.8,8.8,7.8h30.1l1.4,22.3c0.4,4.6,4.2,8.1,8.8,8.1
			h113.2c4.6,0,8.5-3.5,8.8-8.1l8.5-141.2C461,337.2,460.3,334.8,458.6,333z M298.3,440.9l-6-61.2h23l3.9,61.2H298.3z M440.5,476.3
			h-63.7V342.2h71.1L440.5,476.3z"/>
	</g>
</svg>
