<?xml version="1.0" encoding="utf-8"?>
<!-- Generator: Adobe Illustrator 25.2.1, SVG Export Plug-In . SVG Version: 6.00 Build 0)  -->
<svg version="1.1" id="Layer_1" xmlns="http://www.w3.org/2000/svg" xmlns:xlink="http://www.w3.org/1999/xlink" x="0px" y="0px"
		viewBox="0 0 500 500" style="enable-background:new 0 0 500 500;" xml:space="preserve">
	<style type="text/css">
		.st0{fill:#A51A1D;}
	</style>
	<g>
		<g>
			<path class="st0" d="M477.5,247.8L477.5,247.8l-39.9-8.3l-18.8-57.3c-6.6-20.5-25.6-33.6-47-33.6h-32.2v-29.6
				c0-10.3-8.5-18.8-18.8-18.8h-23.6V294H7.5v32.5c0,10.3,8.5,18.8,18.8,18.8h20.5c0,29.6,24.5,54.1,54.1,54.1s54.1-24.5,54.1-54.1
				h189.7c0,29.6,24.5,54.1,54.1,54.1s54.1-24.5,54.1-54.1h20.5c10.3,0,18.8-8.5,18.8-18.8v-60.4
				C492.9,257.5,486.9,249.8,477.5,247.8z M100.9,370.9c-14.2,0-25.6-11.1-25.6-25.6s11.1-25.6,25.6-25.6c14.2,0,25.6,11.1,25.6,25.6
				S115.2,370.9,100.9,370.9z M339.7,234.5v-57.3h32.2c9.1,0,16.8,5.7,19.9,14.2l14.2,43H339.7z M399.5,370.9
				c-13.7,0-25.6-11.1-25.6-25.6s11.7-25.6,25.6-25.6c14.2,0,25.6,11.1,25.6,25.6S413.2,370.9,399.5,370.9z"/>
			<path class="st0" d="M274.1,100.3H25.7c-10.3,0-18.5,8.3-18.5,18.5v152.7h266.9V100.3z M27.1,119.4c0-2,1.7-3.7,3.7-3.7h31.1
				v134.2H27.1V119.4z M257.6,249.8H131.1V115.7h126.5V249.8z"/>
		</g>
	</g>
</svg>
