<?xml version="1.0" encoding="utf-8"?>
<!-- Generator: Adobe Illustrator 25.2.1, SVG Export Plug-In . SVG Version: 6.00 Build 0)  -->
<svg version="1.1" id="Layer_1" xmlns="http://www.w3.org/2000/svg" xmlns:xlink="http://www.w3.org/1999/xlink" x="0px" y="0px"
	 viewBox="0 0 500 500" style="enable-background:new 0 0 500 500;" xml:space="preserve">
	<style type="text/css">
		.st0{display:none;fill:#E2CFCF;}
		.st1{fill:#A51A1D;}
	</style>
	<rect x="-0.2" y="-0.2" class="st0" width="500.2" height="500.2"/>
	<g>
		<g>
			<path class="st1" d="M292.8,188.2c5.2,4.1,11.4,6.4,18,6.4c8.8,0,17.1-3.9,22.6-10.9c4.8-6.1,7-13.6,6.2-21.2
				c-0.9-7.7-4.7-14.5-10.6-19.4c-5.2-4.1-11.4-6.4-18-6.4c-8.8,0-17.1,3.9-22.6,10.9c-4.8,6.1-7,13.6-6.2,21.2
				C283,176.5,286.7,183.5,292.8,188.2L292.8,188.2z"/>
			<path class="st1" d="M208,361l-65.1-52.1l-16.2,20.2l31.8,25.5c0.2,0,0.2,0.2,0.3,0.2c0.2,0.2,0.3,0.3,0.5,0.3
				c0.2,0.2,0.3,0.2,0.3,0.3l32.3,25.9L208,361z"/>
			<path class="st1" d="M122.7,126.8l-63,105.6l77.1,1.2c3.8-7.1,7.6-14.1,11.2-21.1c19.8-37.3,38.9-72.7,58.3-103.6L122.7,126.8z"/>
			<path class="st1" d="M249.2,260.3c1.8-2.3,2.6-5.2,2.3-8s-1.8-5.5-4.1-7.3c-2.4-2-5-2.4-6.8-2.4c-3.3,0-6.5,1.5-8.5,4.1
				c-3.8,4.7-3,11.7,1.7,15.3c2.4,2,5,2.4,6.8,2.4C244,264.4,247.1,262.9,249.2,260.3L249.2,260.3z"/>
			<path class="st1" d="M230.5,350.6l9.5,7.6c7.6-6.7,15.2-13.3,22.4-19.7c7.7-6.7,15.3-13.2,22.7-19.7
				c41.4-35.8,77.1-66.5,105.5-97.4c27.3-29.7,44.1-55.6,53.2-81.5c1.4-3.9,2.4-8,3.3-12.3L318,24.1c-3.8,1.8-7.6,3.8-11.2,5.9
				c-23.3,14.5-45,36.7-67.9,69.7c-23.8,34.2-45.9,75.5-71.4,123.3c-4.8,8.9-9.7,18.2-14.7,27.6c-4.7,8.6-9.5,17.4-14.4,26.2l9.5,7.6
				l0,0L230.5,350.6L230.5,350.6L230.5,350.6z M271,133.8c9.7-12.1,24.2-19.1,39.8-19.1c11.5,0,22.9,3.9,32,11.2
				c10.6,8.5,17.4,20.8,18.8,34.2c1.5,13.6-2.4,27-10.9,37.6c-9.7,12.1-24.2,19.2-39.8,19.2c-11.5,0-22.9-3.9-32-11.2
				c-10.6-8.5-17.4-20.8-18.8-34.2C258.6,157.7,262.5,144.4,271,133.8L271,133.8z M214.8,232.7c6.4-7.9,15.8-12.4,25.9-12.4
				c7.4,0,14.8,2.6,20.6,7.3c7,5.6,11.2,13.3,12.3,22.1c0.9,8.8-1.5,17.4-7.1,24.4c-6.4,7.9-15.8,12.4-25.9,12.4
				c-7.4,0-14.8-2.6-20.6-7.3C205.7,267.9,203.4,247,214.8,232.7L214.8,232.7z"/>
			<path class="st1" d="M299.8,335.6c-5.6,4.8-11.4,9.8-17.3,14.8l18,74.8l89.2-84.7l-0.9-85.6C363.4,280.7,333.4,306.7,299.8,335.6
				L299.8,335.6z"/>
			<path class="st1" d="M342.5,15.5l108,86.5c1.4-33.3-6.7-68.2-12.6-93.6l-0.2-0.9h-0.9C410.7,7,374.8,6.8,342.5,15.5L342.5,15.5z"
				/>
		</g>
		<path class="st1" d="M83.7,395.3c-9.1-3.2-18.9-3.9-28.3-2.3c-1.7,0.3-3.5-0.2-4.7-1.4c-1.5-1.5-2-3.8-1.1-5.8
			c10-21.7,36.8-65.1,85.1-30c0.5,0.5,0.8,1.1,0.8,1.8c0,0.8-0.3,1.4-0.8,1.8c-13.2,10.3-20.6,26.4-20,43c0,2,1.7,3.6,3.6,3.6
			c16.7,0.6,32.6-6.7,43-19.5c0.5-0.6,1.2-0.9,1.8-0.9c0.8,0,1.4,0.3,1.8,0.9c6.7,8,25.2,34.1,4.7,59.2l0,0
			c-8.9,10.8-21.7,17.6-35.6,18.9c-19.8,2.1-56.5,8.6-71.5,25.8c-1.2,1.5-3.2,2.1-5,1.7c-1.8-0.5-3.3-1.8-3.9-3.6
			C48.6,470.4,40.4,430,83.7,395.3L83.7,395.3z"/>
	</g>
</svg>
