<?xml version="1.0" encoding="utf-8"?>
<!-- Generator: Adobe Illustrator 25.2.1, SVG Export Plug-In . SVG Version: 6.00 Build 0)  -->
<svg version="1.1" id="Layer_1" xmlns="http://www.w3.org/2000/svg" xmlns:xlink="http://www.w3.org/1999/xlink" x="0px" y="0px"
	 viewBox="0 0 500 314" style="enable-background:new 0 0 500 314;" xml:space="preserve">
<style type="text/css">
	.st0{fill:#A51A1D;}
</style>
<g>
	<g>
		<path class="st0" d="M477.5,154.8L477.5,154.8l-39.9-8.3l-18.8-57.3c-6.6-20.5-25.6-33.6-47-33.6h-32.2V26
			c0-10.3-8.5-18.8-18.8-18.8h-23.6V201H7.5v32.5c0,10.3,8.5,18.8,18.8,18.8h20.5c0,29.6,24.5,54.1,54.1,54.1s54.1-24.5,54.1-54.1
			h189.7c0,29.6,24.5,54.1,54.1,54.1s54.1-24.5,54.1-54.1h20.5c10.3,0,18.8-8.5,18.8-18.8v-60.4
			C492.9,164.5,486.9,156.8,477.5,154.8z M100.9,277.9c-14.2,0-25.6-11.1-25.6-25.6s11.1-25.6,25.6-25.6c14.2,0,25.6,11.1,25.6,25.6
			S115.2,277.9,100.9,277.9z M339.7,141.5V84.2h32.2c9.1,0,16.8,5.7,19.9,14.2l14.2,43h-66.3V141.5z M399.5,277.9
			c-13.7,0-25.6-11.1-25.6-25.6s11.7-25.6,25.6-25.6c14.2,0,25.6,11.1,25.6,25.6S413.2,277.9,399.5,277.9z"/>
		<path class="st0" d="M274.1,7.3H25.7c-10.3,0-18.5,8.3-18.5,18.5v152.7h266.9V7.3z M27.1,26.4c0-2,1.7-3.7,3.7-3.7h31.1v134.2
			H27.1V26.4z M257.6,156.8H131.1V22.7h126.5V156.8z"/>
	</g>
</g>
</svg>
