<?xml version="1.0" encoding="utf-8"?>
<!-- Generator: Adobe Illustrator 25.2.1, SVG Export Plug-In . SVG Version: 6.00 Build 0)  -->
<svg version="1.1" id="Layer_1" xmlns="http://www.w3.org/2000/svg" xmlns:xlink="http://www.w3.org/1999/xlink" x="0px" y="0px"
	 viewBox="0 0 500 500" style="enable-background:new 0 0 500 500;" xml:space="preserve">
<style type="text/css">
	.st0{fill:#A51A1D;}
</style>
<g>
	<path class="st0" d="M292.3,490.4c-60.8,15.2-121.2-18.9-140.5-75.2c-15.9-45.2-3.7-95.3,31.5-127.1l-53-211.3
		c-7.8-30.4,10.7-61.2,41.5-68.9C202.3,0,233,18.5,240.8,49.3l52.6,210.9c41.9,11.1,74.9,43.7,85.3,85.6
		C394.6,408.5,356.8,474.1,292.3,490.4L292.3,490.4z M175.2,21.9c-22.6,5.6-36,28.2-30.4,50.8L198.6,288c0.7,3,0,5.6-2.6,7.8
		c-33,28.2-44.9,73-30,113.8c17.4,48.9,69.7,79,122.7,65.6c56.7-14.1,89.3-71.5,75.6-126c-9.6-38.5-40-67.8-78.2-76
		c-2.6-0.7-5.2-2.6-5.9-5.6L226.4,53C220.4,30.4,197.8,16.3,175.2,21.9L175.2,21.9z"/>
	<path class="st0" d="M302.7,34.5l-27.4,7c-4.4,1.1-8.2-1.1-8.9-5.6c-1.1-4.4,1.1-8.2,5.6-8.9l27.4-7c4.4-1.1,8.2,1.1,8.9,5.6
		C309,30,306.1,33.7,302.7,34.5z"/>
	<path class="st0" d="M326.8,75.6l-40.8,10c-4.4,1.1-8.2-1.1-8.9-5.6c-1.1-4.4,1.1-8.2,5.6-8.9l40.8-10c4.4-1.1,8.2,1.1,8.9,5.6
		C333.1,70.8,330.1,74.9,326.8,75.6z"/>
	<path class="st0" d="M324.6,123.1l-27.4,7c-4.4,1.1-8.2-1.1-8.9-5.6c-1.1-4.4,1.1-8.2,5.6-8.9l27.4-7c4.4-1.1,8.2,1.1,8.9,5.6
		C331.3,118.2,328.3,122.3,324.6,123.1z"/>
	<path class="st0" d="M348.7,163.5l-40.8,10c-4.4,1.1-8.2-1.1-8.9-5.6c-1.1-4.4,1.1-8.2,5.6-8.9l40.8-10c4.4-1.1,8.2,1.1,8.9,5.6
		C355,158.6,352.4,162.3,348.7,163.5z"/>
	<path class="st0" d="M346.5,210.9l-27.4,7c-4.4,1.1-8.2-1.1-8.9-5.6c-1.1-4.4,1.1-8.2,5.6-8.9l27.4-7c4.4-1.1,8.2,1.1,8.9,5.6
		C353.1,206.1,350.2,209.8,346.5,210.9z"/>
	<path class="st0" d="M343.9,353.2c11.1,44.1-16.3,89.7-60.4,100.5c-44.1,11.1-89.3-15.6-100.4-60.4c-9.3-37.8,8.5-76,42.3-93.8
		l-37.4-150.1c-2.6-10.7,4.1-21.1,14.1-23.7c10-2.6,21.1,4.1,23.7,14.1l37.8,150.9C300.1,290.2,334.2,315.8,343.9,353.2L343.9,353.2
		z"/>
</g>
</svg>
