<?xml version="1.0" encoding="utf-8"?>
<!-- Generator: Adobe Illustrator 25.2.1, SVG Export Plug-In . SVG Version: 6.00 Build 0)  -->
<svg version="1.1" id="Camada_1" xmlns="http://www.w3.org/2000/svg" xmlns:xlink="http://www.w3.org/1999/xlink" x="0px" y="0px"
	 viewBox="0 0 472.3 57.8" style="enable-background:new 0 0 472.3 57.8;" xml:space="preserve">
<style type="text/css">
	.st0{fill:#FFFFFF;}
</style>
<path class="st0" d="M133,27.6h-1.2c-1.4-1.8-3.4-3.1-5.6-3.4l-0.9-0.1v14h-1.1V24l-0.9,0.1c-2.2,0.4-4.3,1.6-5.6,3.4h-1.2
	c1.8-2.8,4.9-4.5,8.2-4.5C128,23.1,131.2,24.8,133,27.6 M134.8,28.6c0.2-0.4,0.2-0.9,0-1.4c-2-3.6-5.9-5.9-10.1-5.9
	c-4.2,0-8,2.3-10.1,5.9c-0.2,0.4-0.2,0.9,0,1.4c0.2,0.4,0.7,0.7,1.2,0.7h2c0.4,0,0.9-0.2,1.1-0.6c0.8-1.1,2-2,3.3-2.5l0.2-0.1v12.3
	c0,0.8,0.6,1.4,1.4,1.4h1.8c0.8,0,1.4-0.6,1.4-1.4V26.1l0.2,0.1c1.3,0.5,2.5,1.4,3.3,2.5c0.3,0.4,0.7,0.6,1.1,0.6h2
	C134.1,29.3,134.5,29.1,134.8,28.6 M141.4,28.4l0.2-0.3c1.1-1.6,2.4-2.3,4-2.3c1.5,0,2.8,0.6,3.8,1.7c0.1,0.2,0.3,0.4,0.4,0.6
	l0.1,0.2H141.4z M139.2,30h13l-0.1-0.9c-0.1-0.7-0.6-1.6-1.3-2.7c-1.4-1.6-3.1-2.4-5.1-2.4c-2.2,0-4,1-5.4,3.1
	c-0.4,0.8-0.7,1.5-0.8,2L139.2,30z M153.1,31.1h-14l0.1,0.9c0.1,0.7,0.6,1.6,1.3,2.7c1.4,1.6,3.1,2.4,5,2.4c1.5,0,3-0.5,4.3-1.6
	l0.7,0.7c-1.4,1.3-3,1.9-4.6,1.9h-0.7c-2,0-3.8-0.9-5.5-2.8c-1.1-1.4-1.6-2.9-1.6-4.3v-0.8c0-1.8,0.9-3.6,2.5-5.2
	c1.5-1.2,3-1.8,4.6-1.8h0.8c2,0,3.8,1,5.5,2.9c1,1.5,1.5,2.9,1.5,4.2L153.1,31.1L153.1,31.1z M154.4,32.3c0.2-0.2,0.4-0.5,0.4-0.9
	v-1.3c0-1.6-0.6-3.4-1.9-5.2l-0.1-0.1c-2.1-2.3-4.3-3.5-6.8-3.5h-0.8c-1.9,0-3.8,0.8-5.6,2.2l-0.1,0c-2,2-3.1,4.2-3.1,6.4v0.8
	c0,1.8,0.7,3.6,2,5.4c2,2.2,4.3,3.4,6.7,3.4h0.7c2.2,0,4.3-0.9,6.1-2.7c0.2-0.2,0.4-0.5,0.4-0.9s-0.1-0.7-0.4-0.9l-1.3-1.3
	c-0.3-0.3-0.8-0.4-0.9-0.4c-0.3,0-0.6,0.1-0.8,0.3c-1.1,0.9-2.2,1.4-3.4,1.4c-1.5,0-2.7-0.6-3.7-1.7c-0.1-0.2-0.3-0.4-0.4-0.6
	l-0.1-0.2h12.1c0.3,0,0.6-0.1,0.9-0.4L154.4,32.3z M173.1,30.2l-1,0c0-0.2-0.1-0.5-0.1-1.1l0-0.1c-0.5-1.7-1.4-3-2.6-3.8
	c-1.2-0.8-2.4-1.1-3.8-1.1c-2.4,0-4.2,1.1-5.7,3.5c-0.5,0.9-0.7,2.1-0.7,3.6v6.9h-1v-8c0-1.8,0.9-3.6,2.6-5.2
	c1.5-1.2,3.1-1.8,4.6-1.8h0.8c2,0,3.8,1,5.5,2.9C172.5,27.4,173.1,28.8,173.1,30.2L173.1,30.2z M174.4,31.4c0.2-0.2,0.4-0.5,0.4-0.9
	v-0.4c0-1.6-0.6-3.4-1.9-5.2l-0.1-0.1c-2.1-2.3-4.4-3.5-6.8-3.5h-0.8c-1.9,0-3.9,0.8-5.7,2.3c-2,2-3.1,4.2-3.1,6.5v8.3
	c0,0.3,0.1,0.6,0.4,0.9l0.1,0.1c0.2,0.2,0.6,0.4,0.9,0.4h1.7c0.3,0,0.6-0.1,0.9-0.4l0.1-0.1c0.2-0.2,0.4-0.5,0.4-0.9v-7.2
	c0-1.2,0.2-2.1,0.5-2.7c1.1-1.9,2.5-2.7,4.2-2.7c1,0,2,0.3,2.9,0.9c0.8,0.5,1.5,1.4,1.9,2.7c0.1,1.5,0.3,2.5,1.5,2.5h1.7
	C173.8,31.8,174.1,31.7,174.4,31.4L174.4,31.4z M200.6,28.6V38h-0.9v-9.3c-0.1-0.7-0.2-1.3-0.5-1.9c-0.3-0.6-0.6-1.1-1.1-1.5
	s-1-0.8-1.5-1c-0.6-0.2-1.2-0.4-1.9-0.4c-0.7,0-1.4,0.1-2,0.4s-1.1,0.6-1.5,1s-0.8,1-1,1.5c-0.2,0.6-0.4,1.2-0.4,1.9v9.1h-0.9v-7.9
	c0-0.9-0.1-1.7-0.3-2.5c-0.2-0.8-0.6-1.5-1.1-2.1c-0.4-0.4-0.9-0.7-1.4-1c-0.6-0.3-1.3-0.5-2.1-0.5c-1.4,0-2.6,0.5-3.5,1.4
	c-0.9,0.9-1.3,2-1.4,3.4v9.2H178v-10c0.1-0.6,0.2-1.2,0.6-1.8c0.3-0.6,0.7-1.1,1.1-1.5c0.4-0.4,0.9-0.8,1.5-1.1
	c0.6-0.3,1.2-0.5,1.9-0.6c0.3,0,0.5,0,0.8,0c0.4,0,0.8,0,1.1,0.1c0.5,0.1,1,0.3,1.5,0.5c0.4,0.2,0.9,0.5,1.2,0.8
	c0.4,0.3,0.7,0.7,1,1c0.1,0.2,0.4,0.3,0.6,0.3c0.2,0,0.4-0.1,0.6-0.3c0.3-0.4,0.7-0.7,1.1-1.1c0.4-0.3,0.8-0.6,1.2-0.8
	c0.4-0.2,0.9-0.4,1.5-0.5c0.4-0.1,0.8-0.1,1.2-0.1c0.2,0,0.4,0,0.6,0c0.6,0,1.1,0.2,1.6,0.4c0.5,0.2,1,0.5,1.4,0.8
	c0.4,0.3,0.8,0.7,1.1,1.2s0.6,0.9,0.7,1.4C200.4,27.3,200.5,27.9,200.6,28.6 M202.3,38.8V28.5c0,0,0-0.1,0-0.1
	c-0.1-0.9-0.2-1.6-0.5-2.2c-0.2-0.6-0.5-1.2-0.9-1.7c-0.4-0.6-0.9-1.1-1.4-1.5c-0.5-0.4-1.1-0.8-1.8-1.1c-0.7-0.3-1.4-0.5-2.1-0.5
	c-0.2,0-0.5,0-0.7,0c-0.6,0-1.1,0-1.6,0.1c-0.7,0.1-1.3,0.3-1.9,0.6c-0.6,0.3-1.1,0.6-1.6,1c-0.1,0.1-0.3,0.2-0.4,0.4l-0.1,0.1
	l-0.1-0.1c-0.1-0.1-0.3-0.3-0.4-0.4c-0.5-0.4-1-0.8-1.6-1c-0.6-0.3-1.2-0.5-1.9-0.6c-0.4-0.1-0.9-0.1-1.4-0.1c-0.3,0-0.6,0-1,0
	c-0.9,0.1-1.8,0.4-2.5,0.8c-0.7,0.4-1.4,0.9-1.9,1.4c-0.5,0.5-1,1.1-1.4,1.9c-0.4,0.8-0.7,1.6-0.8,2.6v10.8c0,0.5,0.4,0.9,0.9,0.9
	h2.4c0.5,0,0.9-0.4,0.9-0.9V29c0.1-1,0.4-1.7,1-2.3c0.6-0.6,1.3-0.9,2.2-0.9c0.5,0,0.9,0.1,1.3,0.3c0.4,0.2,0.7,0.4,1,0.7
	c0.3,0.3,0.6,0.8,0.7,1.3c0.1,0.6,0.2,1.4,0.3,2.1v8.6c0,0.5,0.4,0.9,0.9,0.9h2.4c0.5,0,0.9-0.4,0.9-0.9V29c0-0.5,0.1-0.9,0.3-1.3
	c0.2-0.4,0.4-0.7,0.7-1s0.6-0.5,1-0.7c0.4-0.1,0.8-0.2,1.3-0.2c0.4,0,0.9,0.1,1.2,0.2c0.4,0.2,0.7,0.4,1,0.6s0.5,0.6,0.7,1
	c0.2,0.4,0.3,0.8,0.3,1.2v10c0,0.5,0.4,0.9,0.9,0.9h2.4C201.8,39.8,202.3,39.3,202.3,38.8 M206.6,20.9h-1.1v-1.4h1.1V20.9z
	 M207.9,21.9c0.2-0.2,0.4-0.6,0.4-0.9v-1.6c0-0.3-0.1-0.7-0.4-0.9l-0.1-0.1c-0.2-0.2-0.6-0.4-0.9-0.4h-1.7c-0.3,0-0.7,0.1-0.9,0.4
	l-0.1,0.1c-0.2,0.2-0.4,0.6-0.4,0.9V21c0,0.3,0.1,0.7,0.4,0.9l0.1,0.1c0.2,0.2,0.6,0.4,0.9,0.4h1.7c0.3,0,0.7-0.1,0.9-0.4
	L207.9,21.9z M206.6,25.2V38h-1.1V25.2C205.5,25.2,206.6,25.2,206.6,25.2z M208.3,38.4V24.9c0-0.3-0.1-0.7-0.4-0.9l-0.1-0.1
	c-0.2-0.2-0.6-0.4-0.9-0.4h-1.7c-0.3,0-0.7,0.1-0.9,0.4l-0.1,0.1c-0.2,0.2-0.4,0.6-0.4,0.9v13.5c0,0.3,0.1,0.7,0.4,0.9l0.1,0.1
	c0.2,0.2,0.6,0.4,0.9,0.4h1.7c0.3,0,0.7-0.1,0.9-0.4l0.1-0.1C208.2,39,208.3,38.7,208.3,38.4"/>
<path class="st0" d="M86.8,21.7l-0.1-0.1c-0.2-0.1-0.3-0.2-0.6-0.2h-1.7c-0.2,0-0.4,0.1-0.6,0.2l-0.1,0.1c-0.2,0.1-0.2,0.4-0.2,0.6
	v8.1c0,1-0.1,1.6-0.3,2.2c-1.2,2.4-2.8,3.6-5.1,3.6c-1.3,0-2.4-0.4-3.3-1.1c-1.5-1-2.2-2.5-2.2-4.9v-7.8c0-0.2-0.1-0.4-0.2-0.6
	l-0.1-0.1c-0.2-0.1-0.3-0.2-0.6-0.2H70c-0.2,0-0.4,0.1-0.6,0.2l-0.1,0.1c-0.2,0.1-0.2,0.4-0.2,0.6v8.9c0,1.7,0.6,3.3,1.9,5
	c2,2.2,4.2,3.4,6.7,3.4h0.8c1.4,0,2.9-0.5,4.6-1.5c2.6-2,3.9-4.3,3.9-6.9v-8.9C87.1,22.1,87,21.9,86.8,21.7 M109.5,21.1
	c0.2,0.1,0.3,0.2,0.6,0.2h1.7c0.2,0,0.4-0.1,0.6-0.2l0.1-0.1c0.2-0.1,0.2-0.4,0.2-0.6v-1.6c0-0.2-0.1-0.4-0.2-0.6l-0.1-0.1
	c-0.2-0.1-0.3-0.2-0.6-0.2H110c-0.2,0-0.4,0.1-0.6,0.2l-0.1,0.1c-0.2,0.1-0.2,0.4-0.2,0.6v1.6c0,0.2,0.1,0.4,0.2,0.6L109.5,21.1z
	 M112.4,23.3l-0.1-0.1c-0.2-0.1-0.3-0.2-0.6-0.2H110c-0.2,0-0.4,0.1-0.6,0.2l-0.1,0.1c-0.2,0.1-0.2,0.4-0.2,0.6v15
	c0,0.2,0.1,0.4,0.2,0.6l0.1,0.1c0.2,0.2,0.3,0.2,0.6,0.2h1.7c0.2,0,0.4-0.1,0.6-0.2l0.1-0.1c0.2-0.2,0.2-0.3,0.2-0.5v-15
	C112.7,23.6,112.6,23.5,112.4,23.3 M105.2,24.8c1.3,1.7,1.9,3.5,1.9,5.2v8.8c0,0.2-0.1,0.4-0.2,0.6l-0.1,0.1
	c-0.2,0.2-0.3,0.2-0.6,0.2h-1.7c-0.2,0-0.4-0.1-0.6-0.2l-0.1-0.1c-0.2-0.2-0.2-0.3-0.2-0.6v-7.7c0-2.4-0.7-4.1-2.2-5.1
	c-0.9-0.7-2-1.1-3.3-1.1c-2.3,0-3.9,1.1-5.1,3.6c-0.2,0.6-0.3,1.4-0.3,2.3v8c0,0.2-0.1,0.4-0.2,0.6l-0.1,0.1
	c-0.2,0.2-0.3,0.2-0.6,0.2H90c-0.2,0-0.4-0.1-0.6-0.2l-0.1-0.1c-0.2-0.2-0.2-0.3-0.2-0.6V30c0-2.6,1.3-5,3.9-7.1
	c1.7-1,3.2-1.5,4.6-1.5h0.8C100.9,21.4,103.2,22.5,105.2,24.8"/>
<path class="st0" d="M55.7,28.9c0,9.6-7.8,17.4-17.4,17.4s-17.4-7.8-17.4-17.4c0-0.5,0.4-0.9,0.9-0.9H24c0.5,0,0.9,0.4,0.9,0.9
	c0,7.4,6,13.3,13.4,13.3s13.4-6,13.4-13.4c0-0.5,0.4-0.9,0.9-0.9h2.3C55.3,28,55.7,28.4,55.7,28.9 M53.7,21.8
	c-0.2,0.3-0.5,0.4-0.8,0.4h-2.7c-0.3,0-0.6-0.1-0.8-0.4c-2.1-3.2-5.4-5.5-9.2-6.1v17.2c0,0.5-0.4,0.9-0.9,0.9H37
	c-0.5,0-0.9-0.4-0.9-0.9V15.7c-3.8,0.6-7.1,2.8-9.2,6.1c-0.2,0.3-0.4,0.4-0.8,0.4h-2.7c-0.3,0-0.6-0.2-0.8-0.4s-0.2-0.6,0-0.9
	c3-5.7,9.1-9.4,15.5-9.4s12.5,3.7,15.5,9.4C53.9,21.2,53.8,21.5,53.7,21.8 M59.5,28.9c0-11.7-9.5-21.3-21.3-21.3S17,17.2,17,28.9
	s9.5,21.3,21.3,21.3S59.5,40.6,59.5,28.9"/>
<g>
	<path class="st0" d="M267.6,28.4c0,3-2.1,4.7-5.5,4.7h-2.8l-0.7,3.3h-2.1l2.3-11.5h4.4C266,24.9,267.6,26.2,267.6,28.4z
		 M265.5,28.6c0-1.2-0.9-1.9-2.5-1.9h-2.4l-0.9,4.6h2.5C264.3,31.3,265.5,30.3,265.5,28.6z"/>
	<path class="st0" d="M274.9,27.5l-0.4,2c-0.2,0-0.3,0-0.5,0c-1.6,0-2.7,0.8-3,2.7l-0.9,4.3H268l1.7-8.8h2l-0.2,1.1
		C272.3,27.8,273.4,27.5,274.9,27.5z"/>
	<path class="st0" d="M283.8,32.6h-7c0,1.4,0.8,2.2,2.5,2.2c1,0,1.9-0.3,2.5-0.9l0.9,1.4c-0.9,0.8-2.2,1.2-3.6,1.2
		c-2.6,0-4.3-1.5-4.3-3.9c0-3,2.1-5.1,5.1-5.1c2.4,0,4,1.5,4,3.9C284,31.8,283.9,32.2,283.8,32.6z M277,31.3h5
		c0-1.4-0.9-2.1-2.2-2.1C278.4,29.2,277.4,30,277,31.3z"/>
	<path class="st0" d="M284.2,35.6l0.9-1.6c0.7,0.5,1.9,0.9,3.1,0.9c1.4,0,2-0.4,2-1c0-1.5-4.8-0.3-4.8-3.3c0-1.8,1.7-3,4.2-3
		c1.2,0,2.4,0.3,3.2,0.8l-0.8,1.6c-0.8-0.5-1.7-0.7-2.6-0.7c-1.3,0-2,0.5-2,1.1c0,1.5,4.8,0.4,4.8,3.3c0,1.9-1.7,3-4.2,3
		C286.4,36.5,285,36.1,284.2,35.6z"/>
	<path class="st0" d="M302.5,32.6h-7c0,1.4,0.8,2.2,2.5,2.2c1,0,1.9-0.3,2.5-0.9l0.9,1.4c-0.9,0.8-2.2,1.2-3.6,1.2
		c-2.6,0-4.3-1.5-4.3-3.9c0-3,2.1-5.1,5.1-5.1c2.4,0,4,1.5,4,3.9C302.6,31.8,302.6,32.2,302.5,32.6z M295.7,31.3h5
		c0-1.4-0.9-2.1-2.2-2.1C297.1,29.2,296.1,30,295.7,31.3z"/>
	<path class="st0" d="M310.5,27.5l-0.4,2c-0.2,0-0.3,0-0.5,0c-1.6,0-2.7,0.8-3,2.7l-0.9,4.3h-2.1l1.7-8.8h2l-0.2,1.1
		C307.9,27.8,309,27.5,310.5,27.5z"/>
	<path class="st0" d="M320.8,27.6l-5.5,8.8h-2.1l-2-8.8h2l1.5,6.5l4.1-6.5C318.7,27.6,320.8,27.6,320.8,27.6z"/>
	<path class="st0" d="M330.4,27.6l-1.7,8.8h-2l0.2-0.9c-0.7,0.7-1.7,1-2.9,1c-2.2,0-3.9-1.4-3.9-3.9c0-3,2.1-5.1,5-5.1
		c1.4,0,2.4,0.5,3,1.4l0.2-1.3H330.4z M327.6,31.5c0-1.4-0.8-2.2-2.3-2.2c-1.7,0-3,1.4-3,3.3c0,1.4,0.8,2.2,2.3,2.2
		C326.3,34.8,327.6,33.4,327.6,31.5z"/>
	<path class="st0" d="M336,32.7c0-3,2.2-5.1,5.2-5.1c2.6,0,4.3,1.5,4.3,3.9c0,2.9-2.2,5.1-5.2,5.1C337.6,36.5,336,35,336,32.7z
		 M343.4,31.5c0-1.4-0.8-2.2-2.3-2.2c-1.7,0-3,1.4-3,3.3c0,1.4,0.8,2.2,2.3,2.2C342.1,34.8,343.4,33.4,343.4,31.5z"/>
	<path class="st0" d="M361.4,27.6l-2.4,12h-2.1l0.8-4c-0.7,0.6-1.6,0.9-2.7,0.9c-2.2,0-3.9-1.4-3.9-3.9c0-3,2.1-5.1,5-5.1
		c1.4,0,2.5,0.5,3.1,1.5l0.3-1.4L361.4,27.6L361.4,27.6z M358.6,31.5c0-1.4-0.8-2.2-2.3-2.2c-1.7,0-3,1.4-3,3.3
		c0,1.4,0.8,2.2,2.3,2.2C357.3,34.8,358.6,33.4,358.6,31.5z"/>
	<path class="st0" d="M372.6,27.6l-1.8,8.8h-2l0.2-1c-0.8,0.7-1.8,1.1-3,1.1c-1.9,0-3.2-1-3.2-3c0-0.3,0-0.7,0.1-1l1-4.9h2.1l-1,4.8
		c0,0.2-0.1,0.5-0.1,0.7c0,1,0.6,1.6,1.7,1.6c1.5,0,2.5-0.8,2.9-2.5l0.9-4.6L372.6,27.6L372.6,27.6z"/>
	<path class="st0" d="M382.6,32.6h-7c0,1.4,0.8,2.2,2.5,2.2c1,0,1.9-0.3,2.5-0.9l0.9,1.4c-0.9,0.8-2.2,1.2-3.6,1.2
		c-2.6,0-4.3-1.5-4.3-3.9c0-3,2.1-5.1,5.1-5.1c2.4,0,4,1.5,4,3.9C382.8,31.8,382.7,32.2,382.6,32.6z M375.8,31.3h5
		c0-1.4-0.9-2.1-2.2-2.1C377.2,29.2,376.2,30,375.8,31.3z"/>
	<path class="st0" d="M397.5,31.4c0,0.4,0,0.9-0.1,1.3h-7c0,1.4,0.8,2.2,2.5,2.2c1,0,1.9-0.3,2.5-0.9l0.9,1.4
		c-0.9,0.8-2.2,1.2-3.6,1.2c-2.6,0-4.3-1.5-4.3-3.9c0-3,2.1-5.1,5.1-5.1C395.9,27.5,397.5,29,397.5,31.4z M390.6,31.3h5
		c0-1.4-0.9-2.1-2.2-2.1C392,29.2,390.9,30,390.6,31.3z M394.4,26.4h-1.8l2.5-2.2h2.5L394.4,26.4z"/>
	<path class="st0" d="M413.7,31.4c0,3-2.2,5.2-4.8,5.2c-1.2,0-2.2-0.4-2.7-1.3l-0.2,1.2h-3.5l2.4-12.2h3.7l-0.8,3.8
		c0.6-0.5,1.3-0.8,2.2-0.8C411.8,27.2,413.7,28.7,413.7,31.4z M410,31.6c0-0.8-0.5-1.4-1.3-1.4c-1,0-1.6,0.8-1.6,2.1
		c0,0.8,0.5,1.4,1.3,1.4C409.3,33.7,410,32.8,410,31.6z"/>
	<path class="st0" d="M414.4,32.4c0-3,2.3-5.2,5.6-5.2c3,0,4.9,1.6,4.9,4.2c0,3-2.3,5.2-5.6,5.2C416.3,36.6,414.4,34.9,414.4,32.4z
		 M421.1,31.6c0-0.8-0.5-1.4-1.3-1.4c-1,0-1.6,0.8-1.6,2.1c0,0.8,0.5,1.4,1.3,1.4C420.5,33.7,421.1,32.8,421.1,31.6z"/>
	<path class="st0" d="M441.7,30.3c0,0.4,0,0.7-0.1,1.1l-1,5h-3.7l0.9-4.5c0-0.2,0.1-0.4,0.1-0.6c0-0.7-0.3-1-0.8-1
		c-0.7,0-1.2,0.4-1.5,1.6l-0.9,4.5H431l0.9-4.5c0-0.2,0.1-0.4,0.1-0.6c0-0.7-0.3-1-0.8-1c-0.7,0-1.2,0.4-1.5,1.6l-0.9,4.4h-3.7
		l1.8-9h3.5l-0.2,0.9c0.8-0.7,1.7-1,2.6-1c1.1,0,2.1,0.5,2.6,1.4c0.8-0.9,1.9-1.4,3.2-1.4C440.4,27.2,441.7,28.3,441.7,30.3z"/>
	<path class="st0" d="M442.1,34.6c0-1.4,1-2.3,2.3-2.3c1.2,0,2,0.8,2,2c0,1.4-1,2.3-2.3,2.3C443,36.6,442.1,35.8,442.1,34.6z"/>
</g>
</svg>
