<?xml version="1.0" encoding="utf-8"?>
<!-- Generator: Adobe Illustrator 25.2.1, SVG Export Plug-In . SVG Version: 6.00 Build 0)  -->
<svg version="1.1" id="Camada_1" xmlns="http://www.w3.org/2000/svg" xmlns:xlink="http://www.w3.org/1999/xlink" x="0px" y="0px"
	 viewBox="0 0 119.5 45.5" style="enable-background:new 0 0 119.5 45.5;" xml:space="preserve">
<style type="text/css">
	.st0{fill:#FFFFFF;}
</style>
<g>
	<g>
		<path class="st0" d="M84.6,10.9c0.4,0.4,0.6,0.7,0.6,1.4c0,0.5-0.1,1-0.4,1.4c-0.2,0.4-0.6,0.6-1,0.9c-0.5,0.2-1,0.2-1.6,0.2h-1.5
			l-0.4,1.8h-1.1l1.2-6.3H83C83.5,10.4,84.1,10.5,84.6,10.9z M83.5,13.5c0.2-0.2,0.5-0.6,0.5-1.1c0-0.4-0.1-0.6-0.4-0.7
			c-0.2-0.1-0.6-0.2-1-0.2h-1.4l-0.5,2.5h1.4C82.8,13.9,83.3,13.7,83.5,13.5z"/>
		<path class="st0" d="M88.1,12c0.2-0.1,0.6-0.1,1.1-0.1L88.9,13c-0.1,0-0.2,0-0.2,0c-1,0-1.5,0.5-1.6,1.5l-0.5,2.3h-1.1l1-4.8h1.1
			l-0.1,0.6C87.5,12.3,87.7,12.1,88.1,12z"/>
		<path class="st0" d="M94,14.6h-3.8c0,0.7,0.5,1.2,1.4,1.2c0.2,0,0.5,0,0.7-0.1c0.2-0.1,0.5-0.2,0.6-0.4l0.5,0.7
			c-0.2,0.2-0.5,0.4-0.9,0.5c-0.4,0.1-0.7,0.1-1.1,0.1c-0.5,0-0.9-0.1-1.2-0.2c-0.4-0.1-0.6-0.4-0.9-0.7c-0.2-0.4-0.2-0.7-0.2-1.1
			c0-0.5,0.1-1,0.4-1.5c0.2-0.5,0.6-0.7,1-1c0.4-0.2,0.9-0.4,1.5-0.4c0.7,0,1.2,0.1,1.6,0.6c0.4,0.5,0.6,0.9,0.6,1.5
			C94.1,14.2,94.1,14.5,94,14.6z M90.9,13.1c-0.2,0.2-0.5,0.5-0.5,0.9h2.7c0-0.4-0.1-0.6-0.4-0.9c-0.2-0.2-0.5-0.2-0.9-0.2
			C91.5,12.9,91.2,12.9,90.9,13.1z"/>
		<path class="st0" d="M95.1,16.6c-0.4-0.1-0.6-0.2-0.9-0.4l0.5-0.9c0.2,0.1,0.5,0.2,0.7,0.4c0.2,0.1,0.6,0.1,1,0.1
			c0.4,0,0.6,0,0.9-0.1c0.2-0.1,0.2-0.2,0.2-0.5c0-0.1-0.1-0.2-0.2-0.4c-0.1,0-0.4-0.1-0.7-0.2c-0.4,0-0.6-0.1-0.9-0.2
			c-0.2-0.1-0.4-0.2-0.6-0.4s-0.2-0.4-0.2-0.7c0-0.5,0.2-0.9,0.6-1.2c0.4-0.2,1-0.5,1.6-0.5c0.4,0,0.6,0,1,0.1
			c0.4,0.1,0.6,0.1,0.7,0.2l-0.4,0.9c-0.2-0.1-0.4-0.2-0.6-0.2s-0.5-0.1-0.7-0.1c-0.4,0-0.6,0-0.9,0.1C96,12.6,96,12.8,96,12.9
			c0,0.1,0.1,0.2,0.2,0.4c0.1,0.1,0.4,0.1,0.7,0.2c0.4,0,0.6,0.1,0.9,0.2c0.2,0.1,0.4,0.2,0.5,0.4c0.1,0.1,0.2,0.4,0.2,0.7
			c0,0.5-0.2,0.9-0.6,1.2c-0.4,0.2-1,0.4-1.7,0.4C95.8,16.8,95.5,16.7,95.1,16.6z"/>
		<path class="st0" d="M104.2,14.6h-3.8c0,0.7,0.5,1.2,1.4,1.2c0.2,0,0.5,0,0.7-0.1c0.2-0.1,0.5-0.2,0.6-0.4l0.5,0.7
			c-0.2,0.2-0.5,0.4-0.9,0.5c-0.4,0.1-0.7,0.1-1.1,0.1c-0.5,0-0.9-0.1-1.2-0.2c-0.4-0.1-0.6-0.4-0.9-0.7c-0.2-0.4-0.2-0.7-0.2-1.1
			c0-0.5,0.1-1,0.4-1.5c0.2-0.5,0.6-0.7,1-1c0.4-0.2,0.9-0.4,1.5-0.4c0.7,0,1.2,0.1,1.6,0.6c0.4,0.5,0.6,0.9,0.6,1.5
			C104.3,14.2,104.3,14.5,104.2,14.6z M101.1,13.1c-0.2,0.2-0.5,0.5-0.5,0.9h2.7c0-0.4-0.1-0.6-0.4-0.9c-0.2-0.2-0.5-0.2-0.9-0.2
			C101.8,12.9,101.4,12.9,101.1,13.1z"/>
		<path class="st0" d="M107.5,12c0.2-0.1,0.6-0.1,1.1-0.1l-0.2,1.1c-0.1,0-0.2,0-0.2,0c-1,0-1.5,0.5-1.6,1.5l-0.5,2.3h-1.2l1-4.8
			h1.1l-0.1,0.6C106.9,12.3,107.2,12.1,107.5,12z"/>
		<path class="st0" d="M114.2,11.9l-3,4.8h-1.1l-1.1-4.8h1.1l0.9,3.6l2.2-3.6H114.2z"/>
		<path class="st0" d="M119.5,11.9l-1,4.8h-1.1l0.1-0.5c-0.4,0.4-1,0.6-1.6,0.6c-0.4,0-0.7-0.1-1.1-0.2c-0.4-0.1-0.6-0.4-0.7-0.7
			c-0.2-0.4-0.2-0.7-0.2-1.1c0-0.5,0.1-1,0.4-1.5c0.2-0.5,0.6-0.7,1-1c0.4-0.2,0.9-0.4,1.4-0.4c0.7,0,1.4,0.2,1.6,0.7l0.1-0.7H119.5
			z M117.2,15.6c0.2-0.1,0.5-0.4,0.6-0.6c0.1-0.2,0.2-0.6,0.2-1s-0.1-0.6-0.4-0.9c-0.2-0.2-0.5-0.4-1-0.4c-0.4,0-0.6,0.1-0.9,0.2
			c-0.2,0.1-0.5,0.4-0.6,0.6c-0.1,0.2-0.2,0.6-0.2,1s0.1,0.6,0.4,0.9c0.2,0.2,0.5,0.4,1,0.4C116.7,15.8,116.9,15.7,117.2,15.6z"/>
	</g>
	<g>
		<path class="st0" d="M80.2,27.3c-0.4-0.1-0.6-0.4-0.9-0.7c-0.2-0.4-0.2-0.7-0.2-1.1c0-0.5,0.1-1,0.4-1.5s0.6-0.7,1-1
			c0.4-0.2,1-0.4,1.5-0.4c0.5,0,0.9,0.1,1.2,0.2c0.4,0.1,0.6,0.4,0.9,0.7c0.2,0.4,0.2,0.7,0.2,1.1c0,0.5-0.1,1-0.4,1.5
			c-0.2,0.5-0.6,0.7-1,1s-1,0.4-1.5,0.4S80.4,27.4,80.2,27.3z M82.3,26.4c0.2-0.1,0.5-0.4,0.6-0.6c0.1-0.2,0.2-0.6,0.2-1
			c0-0.4-0.1-0.6-0.4-0.9c-0.2-0.2-0.5-0.4-1-0.4c-0.4,0-0.6,0.1-0.9,0.2c-0.2,0.1-0.5,0.4-0.6,0.6c-0.1,0.2-0.1,0.6-0.1,1
			c0,0.4,0.1,0.6,0.4,0.9c0.2,0.2,0.5,0.4,1,0.4C81.8,26.6,82,26.6,82.3,26.4z"/>
		<path class="st0" d="M92.9,22.7l-1.2,6.5h-1.1l0.4-2.2c-0.4,0.4-0.9,0.5-1.5,0.5c-0.4,0-0.7-0.1-1.1-0.2c-0.4-0.1-0.6-0.4-0.7-0.7
			c-0.2-0.4-0.2-0.7-0.2-1.1c0-0.5,0.1-1,0.4-1.5s0.6-0.7,1-1c0.4-0.2,0.9-0.4,1.4-0.4c0.4,0,0.7,0.1,1,0.2c0.2,0.1,0.5,0.4,0.6,0.6
			l0.1-0.7C91.9,22.7,92.9,22.7,92.9,22.7z M90.5,26.4c0.2-0.1,0.5-0.4,0.6-0.6c0.1-0.2,0.2-0.6,0.2-1c0-0.4-0.1-0.6-0.4-0.9
			c-0.2-0.2-0.5-0.4-1-0.4c-0.4,0-0.6,0.1-0.9,0.2c-0.2,0.1-0.5,0.4-0.6,0.6c-0.1,0.2-0.2,0.6-0.2,1c0,0.4,0.1,0.6,0.4,0.9
			c0.2,0.2,0.5,0.4,1,0.4C90,26.6,90.3,26.6,90.5,26.4z"/>
		<path class="st0" d="M99,22.7l-1,4.8h-1.1l0.1-0.5c-0.4,0.4-1,0.6-1.6,0.6c-0.5,0-1-0.1-1.2-0.5c-0.2-0.4-0.5-0.7-0.5-1.2
			c0-0.2,0-0.4,0.1-0.6l0.5-2.7h1.1L95,25.3c0,0.1,0,0.2,0,0.4c0,0.2,0.1,0.5,0.2,0.6c0.1,0.1,0.4,0.2,0.7,0.2c0.4,0,0.7-0.1,1-0.4
			c0.2-0.2,0.5-0.6,0.5-1l0.5-2.5H99L99,22.7z"/>
		<path class="st0" d="M104.6,25.5h-3.8c0,0.7,0.5,1.2,1.4,1.2c0.2,0,0.5,0,0.7-0.1c0.2-0.1,0.5-0.2,0.6-0.4l0.5,0.7
			c-0.2,0.2-0.5,0.4-0.9,0.5c-0.4,0.1-0.7,0.1-1.1,0.1c-0.5,0-0.9-0.1-1.2-0.2c-0.4-0.1-0.6-0.4-0.9-0.7c-0.2-0.4-0.2-0.7-0.2-1.1
			c0-0.5,0.1-1,0.4-1.5c0.2-0.5,0.6-0.7,1-1c0.4-0.2,0.9-0.4,1.5-0.4c0.7,0,1.2,0.1,1.6,0.6c0.4,0.5,0.6,0.9,0.6,1.5
			C104.6,25,104.6,25.2,104.6,25.5z M101.4,23.9c-0.2,0.2-0.5,0.5-0.5,0.9h2.7c0-0.4-0.1-0.6-0.4-0.9c-0.2-0.2-0.5-0.2-0.9-0.2
			C102,23.6,101.6,23.6,101.4,23.9z"/>
		<path class="st0" d="M112.6,25.5h-3.8c0,0.7,0.5,1.2,1.4,1.2c0.2,0,0.5,0,0.7-0.1c0.2-0.1,0.5-0.2,0.6-0.4l0.5,0.7
			c-0.2,0.2-0.5,0.4-0.9,0.5c-0.4,0.1-0.7,0.1-1.1,0.1c-0.5,0-0.9-0.1-1.2-0.2c-0.4-0.1-0.6-0.4-0.9-0.7c-0.2-0.4-0.2-0.7-0.2-1.1
			c0-0.5,0.1-1,0.4-1.5c0.2-0.5,0.6-0.7,1-1s0.9-0.4,1.5-0.4c0.7,0,1.2,0.1,1.6,0.6c0.4,0.4,0.6,0.9,0.6,1.5
			C112.7,25,112.6,25.2,112.6,25.5z M109.4,23.9c-0.2,0.2-0.5,0.5-0.5,0.9h2.7c0-0.4-0.1-0.6-0.4-0.9c-0.2-0.2-0.5-0.2-0.9-0.2
			C110,23.6,109.6,23.6,109.4,23.9z M111.4,20.8h1.4L111,22h-1L111.4,20.8z"/>
	</g>
	<g>
		<path class="st0" d="M83.8,33.6c0.2,0.2,0.6,0.5,0.7,0.7c0.1,0.2,0.2,0.7,0.2,1.2c0,0.5-0.1,1-0.4,1.5c-0.2,0.5-0.5,0.7-1,1
			c-0.4,0.2-0.9,0.4-1.4,0.4c-0.7,0-1.2-0.2-1.5-0.7l-0.1,0.6h-2l1.4-6.7h2.1l-0.4,2.1c0.4-0.2,0.7-0.4,1.2-0.4
			C83.1,33.3,83.5,33.3,83.8,33.6z M82.5,36.5c0.1-0.2,0.2-0.5,0.2-0.9c0-0.2-0.1-0.4-0.2-0.6c-0.1-0.1-0.2-0.2-0.5-0.2
			c-0.2,0-0.5,0.1-0.6,0.2c-0.1,0.1-0.2,0.5-0.2,0.9c0,0.2,0.1,0.4,0.2,0.6c0.1,0.1,0.2,0.2,0.5,0.2C82.2,36.8,82.4,36.7,82.5,36.5z
			"/>
		<path class="st0" d="M86.5,38.1c-0.4-0.2-0.7-0.5-1-0.9c-0.2-0.4-0.4-0.7-0.4-1.2c0-0.5,0.1-1,0.4-1.5c0.2-0.5,0.6-0.7,1.1-1
			c0.5-0.2,1-0.4,1.6-0.4c0.5,0,1,0.1,1.5,0.2c0.4,0.2,0.7,0.5,1,0.9c0.2,0.4,0.4,0.7,0.4,1.2c0,0.5-0.1,1-0.4,1.5
			c-0.2,0.5-0.6,0.7-1.1,1c-0.5,0.2-1,0.4-1.6,0.4C87.3,38.4,86.8,38.3,86.5,38.1z M88.6,36.5c0.1-0.2,0.2-0.5,0.2-0.9
			c0-0.2-0.1-0.4-0.2-0.6c-0.1-0.1-0.2-0.2-0.5-0.2c-0.2,0-0.5,0.1-0.6,0.2c-0.1,0.1-0.2,0.5-0.2,0.9c0,0.2,0.1,0.4,0.2,0.6
			c0.1,0.1,0.2,0.2,0.5,0.2C88.3,36.8,88.4,36.7,88.6,36.5z"/>
		<path class="st0" d="M99.7,33.7c0.4,0.2,0.5,0.7,0.5,1.2c0,0.2,0,0.4-0.1,0.6l-0.5,2.7h-2.1l0.5-2.5c0-0.1,0-0.2,0-0.2
			c0-0.2,0-0.4-0.1-0.4c-0.1,0-0.2-0.1-0.4-0.1c-0.4,0-0.7,0.2-0.7,0.9l-0.5,2.5h-2.1l0.5-2.5c0-0.1,0-0.2,0-0.2
			c0-0.2,0-0.4-0.1-0.4c-0.1-0.1-0.2-0.1-0.4-0.1c-0.4,0-0.7,0.2-0.9,0.9l-0.5,2.5h-2.1l1-4.9h2l-0.1,0.5c0.2-0.2,0.4-0.4,0.6-0.4
			c0.2-0.1,0.5-0.1,0.7-0.1s0.6,0,0.9,0.2s0.5,0.4,0.6,0.6c0.2-0.2,0.5-0.5,0.7-0.6s0.6-0.2,1-0.2C98.9,33.3,99.4,33.5,99.7,33.7z"
			/>
		<path class="st0" d="M100.6,38.1c-0.2-0.2-0.2-0.5-0.2-0.7c0-0.4,0.1-0.6,0.4-0.9c0.2-0.2,0.5-0.4,0.9-0.4c0.4,0,0.6,0.1,0.9,0.2
			c0.2,0.1,0.2,0.5,0.2,0.7c0,0.4-0.1,0.6-0.4,0.9c-0.2,0.2-0.5,0.4-0.9,0.4C101.1,38.4,100.9,38.3,100.6,38.1z"/>
	</g>
</g>
<g>
	<g>
		<path class="st0" d="M44.2,15.2c0,6.7-5.4,12.1-12.1,12.1S20,21.9,20,15.2c0-0.4,0.2-0.6,0.6-0.6h1.6c0.4,0,0.6,0.2,0.6,0.6
			c0,5.1,4.1,9.2,9.2,9.2s9.2-4.2,9.2-9.2c0-0.4,0.2-0.6,0.6-0.6h1.6C43.9,14.7,44.2,15,44.2,15.2 M42.8,10.4
			c-0.1,0.1-0.2,0.2-0.5,0.2h-1.8c-0.2,0-0.4-0.1-0.5-0.2c-1.5-2.2-3.7-3.8-6.3-4.2v11.8c0,0.4-0.2,0.6-0.6,0.6h-1.7
			c-0.4,0-0.6-0.2-0.6-0.6V6.2c-2.6,0.4-4.9,2-6.3,4.2c-0.1,0.1-0.2,0.2-0.5,0.2h-1.8c-0.2,0-0.4-0.1-0.5-0.2
			c-0.1-0.1-0.1-0.4,0-0.6c2.1-3.9,6.3-6.5,10.7-6.5S41,5.9,43.1,9.8C43,9.9,43,10.2,42.8,10.4 M46.8,15.2c0-8.1-6.5-14.7-14.7-14.7
			S17.4,7.1,17.4,15.2s6.7,14.7,14.7,14.7S46.8,23.4,46.8,15.2"/>
	</g>
	<g>
		<path class="st0" d="M29.5,39.4h-0.6c-0.6-0.9-1.6-1.5-2.6-1.6H26v6.5h-0.5v-6.5h-0.4c-1,0.1-2,0.7-2.6,1.6h-0.6
			c0.9-1.2,2.3-2.1,3.8-2.1C27.2,37.3,28.7,38,29.5,39.4 M30.3,39.9c0.1-0.2,0.1-0.4,0-0.6c-1-1.7-2.7-2.7-4.7-2.7s-3.7,1-4.7,2.7
			c-0.1,0.2-0.1,0.4,0,0.6s0.4,0.2,0.5,0.2h1c0.2,0,0.4-0.1,0.5-0.2c0.4-0.5,0.9-1,1.5-1.2h0.1v5.7c0,0.4,0.2,0.6,0.6,0.6H26
			c0.4,0,0.6-0.2,0.6-0.6v-5.7h0.1c0.6,0.2,1.1,0.6,1.5,1.2c0.1,0.1,0.2,0.2,0.5,0.2h1C30,40.1,30.3,40,30.3,39.9 M33.3,39.7
			l0.1-0.1c0.5-0.7,1.1-1.1,1.8-1.1c0.7,0,1.2,0.2,1.7,0.9c0.1,0.1,0.1,0.2,0.2,0.2v0.1H33.3L33.3,39.7z M32.4,40.5h6l-0.1-0.4
			c0-0.4-0.2-0.7-0.6-1.2c-0.6-0.7-1.5-1.1-2.3-1.1c-1,0-1.8,0.5-2.5,1.5c-0.2,0.4-0.4,0.6-0.4,0.9L32.4,40.5z M38.9,41h-6.5
			l0.1,0.4c0,0.4,0.2,0.7,0.6,1.2c0.6,0.7,1.5,1.1,2.3,1.1c0.7,0,1.4-0.2,2-0.7l0.4,0.4c-0.6,0.6-1.4,0.9-2.2,0.9h-0.4
			c-1,0-1.7-0.5-2.6-1.2c-0.5-0.6-0.7-1.4-0.7-2v-0.4c0-0.9,0.4-1.6,1.2-2.5c0.7-0.6,1.4-0.9,2.1-0.9h0.4c0.9,0,1.7,0.5,2.6,1.4
			c0.5,0.7,0.7,1.4,0.7,2V41L38.9,41z M39.5,41.5c0.1-0.1,0.1-0.2,0.1-0.4v-0.6c0-0.7-0.2-1.6-0.9-2.3l0,0c-1-1.1-2-1.6-3.2-1.6
			h-0.4c-0.9,0-1.7,0.4-2.6,1l0,0c-1,1-1.5,2-1.5,3v0.4c0,0.9,0.4,1.7,1,2.5c1,1,2,1.6,3.1,1.6h0.4c1,0,2-0.4,2.8-1.2
			c0.1-0.1,0.1-0.2,0.2-0.4c0-0.1,0-0.2-0.1-0.4l-0.6-0.6c-0.1-0.1-0.4-0.1-0.4-0.1c-0.1,0-0.2,0-0.4,0.1c-0.5,0.4-1,0.6-1.6,0.6
			c-0.6,0-1.2-0.2-1.7-0.9c-0.1-0.1-0.1-0.2-0.2-0.2v-0.1h5.5C39.1,41.7,39.3,41.7,39.5,41.5L39.5,41.5z M48.1,40.5h-0.5
			c0-0.1,0-0.2,0-0.5l0,0c-0.2-0.9-0.6-1.4-1.2-1.7c-0.5-0.4-1.1-0.5-1.7-0.5c-1.1,0-2,0.5-2.6,1.6c-0.2,0.4-0.4,1-0.4,1.6v3.2h-0.5
			v-3.7c0-0.9,0.4-1.6,1.2-2.5c0.7-0.6,1.5-0.9,2.1-0.9h0.4c0.9,0,1.7,0.5,2.6,1.4C47.9,39.3,48.1,39.9,48.1,40.5L48.1,40.5z
			 M48.8,41.1c0.1-0.1,0.1-0.2,0.1-0.4v-0.1c0-0.7-0.2-1.6-0.9-2.5l0,0c-1-1.1-2-1.6-3.2-1.6h-0.4c-0.9,0-1.8,0.4-2.7,1.1
			c-1,1-1.5,2-1.5,3v3.8c0,0.1,0,0.2,0.1,0.4l0,0c0.1,0.1,0.2,0.1,0.4,0.1h0.7c0.1,0,0.2,0,0.4-0.1l0,0c0.1-0.1,0.1-0.2,0.1-0.4
			v-3.3c0-0.5,0.1-1,0.2-1.2c0.5-0.9,1.1-1.2,2-1.2c0.5,0,1,0.1,1.4,0.4c0.4,0.2,0.6,0.6,0.9,1.2c0.1,0.7,0.1,1.1,0.7,1.1h0.7
			C48.4,41.4,48.5,41.2,48.8,41.1L48.8,41.1z M60.8,39.7v4.4h-0.4v-4.3c0-0.2-0.1-0.6-0.2-0.9c-0.1-0.2-0.2-0.5-0.5-0.7
			c-0.2-0.2-0.5-0.4-0.7-0.5c-0.2-0.1-0.6-0.1-0.9-0.1c-0.4,0-0.6,0-0.9,0.2c-0.2,0.1-0.5,0.2-0.7,0.5s-0.4,0.5-0.5,0.7
			s-0.2,0.6-0.2,0.9v4.2h-0.4v-3.7c0-0.4,0-0.9-0.1-1.1c-0.1-0.4-0.2-0.7-0.5-1c-0.1-0.2-0.4-0.4-0.6-0.5c-0.2-0.1-0.6-0.2-1-0.2
			c-0.6,0-1.2,0.2-1.6,0.6c-0.4,0.4-0.6,1-0.6,1.6v4.3h-0.4v-4.7c0-0.2,0.1-0.6,0.2-0.9c0.1-0.2,0.4-0.5,0.5-0.7
			c0.2-0.2,0.4-0.4,0.7-0.5c0.2-0.1,0.6-0.2,0.9-0.2c0.1,0,0.2,0,0.4,0c0.2,0,0.4,0,0.5,0c0.2,0,0.5,0.1,0.7,0.2
			c0.2,0.1,0.4,0.2,0.6,0.4c0.1,0.1,0.4,0.4,0.5,0.5c0,0.1,0.1,0.1,0.2,0.1s0.2,0,0.2-0.1c0.1-0.1,0.4-0.4,0.5-0.5
			c0.1-0.1,0.4-0.2,0.6-0.4c0.2-0.1,0.5-0.1,0.7-0.2c0.1,0,0.4,0,0.6,0c0.1,0,0.2,0,0.2,0c0.2,0,0.5,0.1,0.7,0.1
			c0.2,0.1,0.5,0.2,0.6,0.4c0.2,0.1,0.4,0.4,0.5,0.5c0.1,0.2,0.2,0.4,0.4,0.6C60.7,39.3,60.8,39.5,60.8,39.7 M61.6,44.6v-4.8l0,0
			c0-0.4-0.1-0.7-0.2-1c-0.1-0.2-0.2-0.5-0.4-0.9c-0.2-0.2-0.4-0.5-0.6-0.7c-0.2-0.2-0.5-0.4-0.9-0.5c-0.2-0.1-0.6-0.2-1-0.2
			c-0.1,0-0.2,0-0.4,0c-0.2,0-0.5,0-0.7,0c-0.4,0-0.6,0.1-0.9,0.2c-0.2,0.1-0.5,0.2-0.7,0.5c0,0-0.1,0.1-0.2,0.1l0,0l0,0
			c0,0-0.1-0.1-0.2-0.1c-0.2-0.2-0.5-0.4-0.7-0.5c-0.2-0.1-0.6-0.2-0.9-0.2c-0.2,0-0.4,0-0.6,0c-0.1,0-0.2,0-0.5,0
			c-0.4,0-0.9,0.1-1.2,0.4c-0.4,0.2-0.6,0.4-0.9,0.6s-0.5,0.5-0.6,0.9c-0.2,0.4-0.4,0.7-0.4,1.2v4.9c0,0.2,0.2,0.4,0.4,0.4H51
			c0.2,0,0.4-0.2,0.4-0.4v-4.6c0-0.5,0.2-0.7,0.5-1.1c0.2-0.2,0.6-0.4,1-0.4c0.2,0,0.4,0,0.6,0.1s0.4,0.2,0.5,0.4
			c0.1,0.1,0.2,0.4,0.4,0.6c0.1,0.2,0.1,0.6,0.1,1v3.9c0,0.2,0.2,0.4,0.4,0.4h1.1c0.2,0,0.4-0.2,0.4-0.4v-4.6c0-0.2,0.1-0.4,0.1-0.6
			c0.1-0.2,0.2-0.4,0.2-0.5c0.1-0.1,0.2-0.2,0.5-0.2c0.1-0.1,0.4-0.1,0.6-0.1c0.2,0,0.4,0,0.6,0.1c0.1,0.1,0.4,0.1,0.5,0.2
			c0.1,0.1,0.2,0.2,0.4,0.5c0.1,0.1,0.1,0.4,0.1,0.6v4.7c0,0.2,0.2,0.4,0.5,0.4H61C61.4,44.9,61.6,44.8,61.6,44.6 M63.7,36.2h-0.5
			v-0.6h0.5V36.2z M64.3,36.7c0.1-0.1,0.1-0.2,0.1-0.4v-0.7c0-0.1,0-0.2-0.1-0.4l0,0c-0.1-0.1-0.2-0.1-0.4-0.1h-1
			c-0.1,0-0.2,0-0.4,0.1l0,0c-0.1,0.1-0.1,0.2-0.1,0.4v0.7c0,0.1,0,0.2,0.1,0.4l0,0c0.1,0.1,0.2,0.1,0.4,0.1h0.9
			C63.9,36.9,64,36.8,64.3,36.7L64.3,36.7z M63.7,38.3v5.9h-0.5v-5.9C63.2,38.3,63.7,38.3,63.7,38.3z M64.4,44.3V38
			c0-0.1,0-0.2-0.1-0.4l0,0c-0.1-0.1-0.2-0.1-0.4-0.1h-1c-0.1,0-0.2,0-0.4,0.1l0,0c-0.1,0.1-0.1,0.2-0.1,0.4v6.3
			c0,0.1,0,0.2,0.1,0.4l0,0c0.1,0.1,0.2,0.1,0.4,0.1h0.9c0.1,0,0.2,0,0.4-0.1l0,0C64.4,44.7,64.4,44.4,64.4,44.3"/>
	</g>
	<g>
		<path class="st0" d="M8.1,36.7L8.1,36.7c-0.1-0.1-0.2-0.1-0.2-0.1H7.1c-0.1,0-0.1,0-0.2,0.1l0,0c-0.1,0.1-0.1,0.1-0.1,0.2v3.7
			c0,0.5,0,0.7-0.1,1c-0.5,1.1-1.2,1.6-2.3,1.6c-0.6,0-1.1-0.1-1.5-0.5c-0.7-0.5-1-1.1-1-2.2v-3.6c0-0.1,0-0.2-0.1-0.2l0,0
			c-0.1-0.1-0.1-0.1-0.2-0.1H0.7c-0.1,0-0.1,0-0.2,0.1l0,0c-0.1,0.1-0.1,0.1-0.1,0.2V41c0,0.9,0.2,1.5,0.9,2.3c0.9,1,2,1.6,3.1,1.6
			h0.4c0.6,0,1.4-0.2,2.1-0.7c1.2-1,1.8-2,1.8-3.2v-4.1C8.2,36.8,8.2,36.7,8.1,36.7 M18.6,36.3c0,0.1,0.1,0.1,0.2,0.1h0.7
			c0.1,0,0.1,0,0.2-0.1l0,0c0.1-0.1,0.1-0.1,0.1-0.2v-0.7c0-0.1,0-0.2-0.1-0.2l0,0c-0.1-0.1-0.1-0.1-0.2-0.1h-0.7
			c-0.1,0-0.1,0-0.2,0.1l0,0c-0.1,0.1-0.1,0.1-0.1,0.2v0.7C18.4,36.2,18.4,36.2,18.6,36.3L18.6,36.3z M19.9,37.3L19.9,37.3
			c-0.1-0.1-0.2-0.1-0.2-0.1h-0.7c-0.1,0-0.1,0-0.2,0.1l0,0c-0.1,0-0.1,0.1-0.1,0.2v6.9c0,0.1,0,0.2,0.1,0.2l0,0
			c0.1,0,0.1,0.1,0.2,0.1h0.7c0.1,0,0.2,0,0.2-0.1l0,0c0-0.1,0.1-0.1,0.1-0.2v-6.9C20,37.5,20,37.4,19.9,37.3 M16.6,38
			c0.6,0.9,0.9,1.6,0.9,2.5v4.1c0,0.1,0,0.2-0.1,0.2l0,0c-0.1,0-0.1,0.1-0.2,0.1h-0.7c-0.1,0-0.1,0-0.2-0.1l0,0
			C16,44.7,16,44.7,16,44.6V41c0-1.1-0.4-1.8-1-2.3c-0.4-0.4-1-0.5-1.5-0.5c-1.1,0-1.8,0.5-2.3,1.6C11,40,11,40.4,11,40.9v3.7
			c0,0.1,0,0.2-0.1,0.2l0,0c0,0-0.1,0.1-0.2,0.1H9.9c-0.1,0-0.2,0-0.2-0.1l0,0c-0.1-0.1-0.1-0.1-0.1-0.2v-4.1c0-1.2,0.6-2.3,1.8-3.3
			c0.7-0.5,1.5-0.7,2.1-0.7h0.4C14.6,36.4,15.7,36.9,16.6,38"/>
	</g>
</g>
</svg>
