<?xml version="1.0" encoding="utf-8"?>
<!-- Generator: Adobe Illustrator 25.2.1, SVG Export Plug-In . SVG Version: 6.00 Build 0)  -->
<svg version="1.1" id="Camada_1" xmlns="http://www.w3.org/2000/svg" xmlns:xlink="http://www.w3.org/1999/xlink" x="0px" y="0px"
	 viewBox="0 0 1080 1080" style="enable-background:new 0 0 1080 1080;" xml:space="preserve">
<style type="text/css">
	.st0{fill:url(#SVGID_1_);}
	.st1{fill:url(#SVGID_2_);}
	.st2{fill:url(#SVGID_3_);}
	.st3{fill:url(#SVGID_4_);}
	.st4{fill:url(#SVGID_5_);}
	.st5{fill:#FFFFFF;}
	.st6{fill:#F6F6F6;}
</style>
<g>
	<g>
		<g>
			<g>
				
					<radialGradient id="SVGID_1_" cx="5.5243" cy="554.3273" r="121.626" gradientTransform="matrix(1 0 0 -1 0 1080)" gradientUnits="userSpaceOnUse">
					<stop  offset="0.1667" style="stop-color:#4775B6"/>
					<stop  offset="0.3142" style="stop-color:#4977B7"/>
					<stop  offset="0.4614" style="stop-color:#4D7FB9"/>
					<stop  offset="0.6085" style="stop-color:#568DBB"/>
					<stop  offset="0.7556" style="stop-color:#64A0BB"/>
					<stop  offset="0.9013" style="stop-color:#78B7B7"/>
					<stop  offset="1" style="stop-color:#89C9B2"/>
				</radialGradient>
				<path class="st0" d="M74.1,612.9c8.6,8.6,22.4,8.6,30.9,0l0,0c8.6-8.5,8.6-22.4,0-30.9l-66.2-66.2c-8.6-8.6-22.4-8.6-30.9,0l0,0
					c-8.6,8.6-8.6,22.4,0,30.9l39.2,39.1L74.1,612.9z"/>
				
					<linearGradient id="SVGID_2_" gradientUnits="userSpaceOnUse" x1="23.9908" y1="565.6706" x2="177.9159" y2="565.6706" gradientTransform="matrix(1 0 0 -1 0 1080)">
					<stop  offset="0" style="stop-color:#89C9B2"/>
					<stop  offset="9.870000e-02" style="stop-color:#78B7B7"/>
					<stop  offset="0.2444" style="stop-color:#64A0BB"/>
					<stop  offset="0.3915" style="stop-color:#568DBB"/>
					<stop  offset="0.5386" style="stop-color:#4D7FB9"/>
					<stop  offset="0.6858" style="stop-color:#4977B7"/>
					<stop  offset="0.8333" style="stop-color:#4775B6"/>
				</linearGradient>
				<path class="st1" d="M105.1,449.4c-8.6-8.6-22.4-8.6-30.9,0L7.9,515.6c-8.4,8.4-8.9,21.5-0.9,30l0.3,0.4l0.4,0.4
					c0,0,0.1,0.1,0.1,0.1c0,0,0.1,0.1,0.1,0.1l39.1,39c-21-21,7.2-54.6,7.2-54.6l0,0l50.8-50.8C113.6,471.8,113.6,457.9,105.1,449.4
					z"/>
			</g>
			<g>
				
					<linearGradient id="SVGID_3_" gradientUnits="userSpaceOnUse" x1="1840.7531" y1="5.8816" x2="1950.7765" y2="5.8816" gradientTransform="matrix(-1 0 0 1 2920.2148 501.2578)">
					<stop  offset="9.556049e-03" style="stop-color:#8C1456"/>
					<stop  offset="0.1343" style="stop-color:#8F1B56"/>
					<stop  offset="0.3029" style="stop-color:#962A56"/>
					<stop  offset="0.4966" style="stop-color:#A33E56"/>
					<stop  offset="0.7091" style="stop-color:#B75B51"/>
					<stop  offset="0.9344" style="stop-color:#D2813B"/>
					<stop  offset="1" style="stop-color:#DB8E2E"/>
				</linearGradient>
				<path class="st2" d="M1006.8,458.5c-8.6-8.6-22.4-8.6-30.9,0l0,0c-8.6,8.6-8.6,22.4,0,30.9l66.2,66.2c8.6,8.6,22.4,8.6,30.9,0
					l0,0c8.6-8.6,8.6-22.4,0-30.9l-39.2-39.1L1006.8,458.5z"/>
				
					<linearGradient id="SVGID_4_" gradientUnits="userSpaceOnUse" x1="1863.2703" y1="55.812" x2="2017.1954" y2="55.812" gradientTransform="matrix(-1 0 0 1 2920.2148 501.2578)">
					<stop  offset="0" style="stop-color:#DB8E2E"/>
					<stop  offset="6.560000e-02" style="stop-color:#D2813B"/>
					<stop  offset="0.2909" style="stop-color:#B75B51"/>
					<stop  offset="0.5034" style="stop-color:#A33E56"/>
					<stop  offset="0.6971" style="stop-color:#962A56"/>
					<stop  offset="0.8657" style="stop-color:#8F1B56"/>
					<stop  offset="0.9904" style="stop-color:#8C1456"/>
				</linearGradient>
				<path class="st3" d="M975.9,622c8.6,8.6,22.4,8.6,30.9,0l66.2-66.2c8.4-8.4,8.9-21.5,0.9-30l-0.3-0.4l-0.4-0.4
					c0,0-0.1-0.1-0.1-0.1c0,0-0.1-0.1-0.1-0.1l-39.1-39c21,21-7.2,54.6-7.2,54.6l0,0l-50.8,50.8C967.3,599.6,967.3,613.5,975.9,622z
					"/>
			</g>
			
				<linearGradient id="SVGID_5_" gradientUnits="userSpaceOnUse" x1="98.643" y1="477.3068" x2="151.3982" y2="477.3068" gradientTransform="matrix(0.988 0.1544 0.1544 -0.988 -30.4322 986.2719)">
				<stop  offset="0" style="stop-color:#89C9B2"/>
				<stop  offset="9.870000e-02" style="stop-color:#78B7B7"/>
				<stop  offset="0.2444" style="stop-color:#64A0BB"/>
				<stop  offset="0.3915" style="stop-color:#568DBB"/>
				<stop  offset="0.5386" style="stop-color:#4D7FB9"/>
				<stop  offset="0.6858" style="stop-color:#4977B7"/>
				<stop  offset="0.8333" style="stop-color:#4775B6"/>
			</linearGradient>
			<path class="st4" d="M156.7,610.4c-2.4,7.5-10.4,11.6-17.9,9.2l0,0c-7.5-2.4-11.6-10.4-9.2-17.9l47.2-144.2
				c2.4-7.5,10.4-11.6,17.9-9.2l0,0c7.5,2.4,11.6,10.4,9.2,17.9L156.7,610.4z"/>
			<path class="st5" d="M367.8,465.1c2.9,0,5.2,2.7,4.6,5.5l-17.9,100.1c-0.4,2.1-1.4,3.9-2.8,5.4s-3.3,2.5-5.3,2.9
				c-2.1,0.4-4.2,0.1-6.1-0.7c-1.9-0.8-3.4-2.1-4.5-3.9L298.3,513l-37.5,61.5c-0.9,1.5-2.1,2.7-3.7,3.5c-1.7,0.9-3.5,1.3-5.5,1.2
				c-2-0.1-3.9-0.8-5.4-1.9c-2.2-1.6-3.6-3.8-4-6.6l-17.7-98.5c-0.7-3.7,2.2-7.2,6-7.2h10.4c1.8,0,3.3,1.3,3.6,3l13,71.4l32.2-51.4
				c0.9-1.5,2.1-2.7,3.7-3.5s3.2-1.2,5-1.2c1.8,0,3.4,0.4,5,1.2c1.5,0.8,2.8,2,3.8,3.5l32.1,51.4l12.8-70.4c0.4-2.3,2.5-4.1,4.9-4.1
				L367.8,465.1L367.8,465.1z"/>
			<path class="st5" d="M413.3,577.8h-6.4c-3.9,0-7-3.1-7-7v-98.7c0-3.9,3.1-7,7-7h6.4c3.9,0,7,3.1,7,7v98.7
				C420.4,574.7,417.2,577.8,413.3,577.8z M500.7,577.8h-8.8c-1.9,0-3.7-0.7-5-2.1l-41.9-42c-1.3-1.3-3.1-2.1-5-2.1h-4.5
				c-3.9,0-7-3.1-7-7v-6.6c0-3.9,3.1-7,7-7h4.5c1.9,0,3.7-0.7,5-2.1l41.9-42c1.3-1.3,3.1-2.1,5-2.1h8.8c6.3,0,9.4,7.7,4.9,12
				l-40.4,39.3c-2.8,2.8-2.8,7.3,0,10.1l40.4,39.3C510.1,570.2,507,577.8,500.7,577.8z"/>
			<path class="st5" d="M654.4,532.2c0,6.9-1.2,13.2-3.5,19c-2.4,5.8-5.6,10.7-9.8,14.9c-4.2,4.2-9.2,7.5-14.9,9.8
				c-5.7,2.3-12,3.5-18.8,3.5h-27.7c-6.8,0-13-1.2-18.8-3.5c-5.8-2.3-10.7-5.6-14.9-9.8c-4.2-4.2-7.5-9.2-9.9-14.9
				c-2.4-5.8-3.6-12.1-3.6-19v-21.5c0-6.8,1.2-13.1,3.6-18.9c2.4-5.8,5.7-10.8,9.9-14.9c4.2-4.2,9.2-7.4,14.9-9.8
				c5.8-2.4,12-3.5,18.8-3.5h27.7c6.8,0,13,1.2,18.8,3.5c5.7,2.4,10.7,5.6,14.9,9.8s7.5,9.2,9.8,14.9c2.4,5.8,3.5,12.1,3.5,18.9
				L654.4,532.2L654.4,532.2z M634,510.7c0-4-0.6-7.7-1.9-11c-1.3-3.3-3.1-6.1-5.4-8.4c-2.3-2.3-5.1-4.1-8.4-5.4
				c-3.3-1.3-6.9-1.9-10.8-1.9h-27.7c-4,0-7.6,0.6-10.9,1.9c-3.3,1.3-6.1,3.1-8.5,5.4c-2.4,2.3-4.2,5.1-5.5,8.4
				c-1.3,3.3-1.9,6.9-1.9,11v21.5c0,4,0.6,7.7,1.9,11c1.3,3.3,3.1,6.1,5.5,8.4c2.4,2.3,5.2,4.1,8.5,5.4c3.3,1.3,6.9,1.9,10.9,1.9
				h27.5c4,0,7.6-0.6,10.9-1.9c3.3-1.3,6.1-3.1,8.5-5.4c2.4-2.3,4.2-5.1,5.5-8.4c1.3-3.3,1.9-6.9,1.9-11L634,510.7L634,510.7z"/>
			<path class="st5" d="M796,530.6c0,6.9-1.2,13.2-3.6,19c-2.4,5.8-5.7,10.7-9.9,14.9c-4.2,4.2-9.2,7.4-14.9,9.8
				c-5.8,2.4-12,3.5-18.8,3.5h-55.2c-1.5,0-2.8-0.3-4.1-0.8c-1.2-0.5-2.3-1.2-3.3-2.2c-0.9-0.9-1.6-2-2.2-3.3
				c-0.5-1.2-0.8-2.6-0.8-4.1v-92.2c0-1.4,0.3-2.8,0.8-4c0.5-1.2,1.2-2.4,2.2-3.3c0.9-0.9,2-1.7,3.3-2.2c1.2-0.5,2.6-0.8,4.1-0.8
				h55.2c6.8,0,13,1.2,18.8,3.5c5.8,2.4,10.7,5.6,14.9,9.8s7.5,9.2,9.9,14.9c2.4,5.8,3.6,12.1,3.6,18.9V530.6z M775.6,512.3
				c0-4-0.6-7.6-1.9-10.9c-1.3-3.3-3.1-6.1-5.5-8.5c-2.4-2.3-5.2-4.1-8.5-5.4c-3.3-1.3-6.9-1.9-10.9-1.9h-45.1v71.9h45.1
				c4,0,7.6-0.6,10.9-1.9c3.3-1.3,6.1-3.1,8.5-5.4c2.4-2.3,4.2-5.1,5.5-8.4s1.9-6.9,1.9-11V512.3z"/>
			<path class="st5" d="M926.8,573c0,2.7-2.1,4.8-4.8,4.8h-69c-2.8,0-5.9-0.5-9.3-1.5c-3.4-1-6.5-2.6-9.3-4.9
				c-2.9-2.3-5.2-5.2-7.1-8.9c-1.9-3.7-2.9-8.1-2.9-13.4v-73.8c0-1.4,0.3-2.8,0.8-4c0.5-1.2,1.2-2.4,2.2-3.3c0.9-0.9,2-1.7,3.3-2.2
				c1.2-0.5,2.6-0.8,4.1-0.8H922c2.7,0,4.8,2.1,4.8,4.8v10.8c0,2.7-2.1,4.8-4.8,4.8h-72.3c-2.7,0-4.8,2.1-4.8,4.8v58.8
				c0,2.7,0.7,4.7,2.1,6.1c1.4,1.4,3.5,2.1,6.2,2.1h68.8c2.7,0,4.8,2.1,4.8,4.8L926.8,573L926.8,573z M912.8,531.7h-54.9
				c-2.7,0-4.8-2.1-4.8-4.8v-11c0-2.7,2.1-4.8,4.8-4.8h54.9c2.7,0,4.8,2.1,4.8,4.8v11C917.6,529.6,915.5,531.7,912.8,531.7z"/>
		</g>
		<g>
			<path class="st5" d="M237.1,636.5l0-8.9l-4.4,7.3h-1.5l-4.3-7.1v8.7h-3.2v-14.8h2.8l5.5,9.2l5.5-9.2h2.8l0,14.8L237.1,636.5
				L237.1,636.5z"/>
			<path class="st5" d="M272.4,633.3h-6.9l-1.3,3.2h-3.5l6.6-14.8h3.4l6.6,14.8h-3.6L272.4,633.3z M271.3,630.8l-2.3-5.7l-2.3,5.7
				H271.3z"/>
			<path class="st5" d="M307.1,636.5l-2.9-4.1h-0.2h-3v4.1h-3.4v-14.8h6.4c4,0,6.4,2.1,6.4,5.4c0,2.2-1.1,3.8-3,4.7l3.3,4.8
				L307.1,636.5L307.1,636.5z M303.9,624.5h-2.8v5.2h2.8c2.1,0,3.2-1,3.2-2.6C307.1,625.5,306,624.5,303.9,624.5z"/>
			<path class="st5" d="M337.5,630.7l-2,2.1v3.7h-3.4v-14.8h3.4v6.9l6.6-6.9h3.8l-6.2,6.6l6.5,8.2h-4L337.5,630.7z"/>
			<path class="st5" d="M378.1,633.8v2.8h-11.5v-14.8h11.2v2.8H370v3.2h6.9v2.7H370v3.4L378.1,633.8L378.1,633.8z"/>
			<path class="st5" d="M402.7,624.5h-4.7v-2.8h12.9v2.8h-4.7v12h-3.4V624.5z"/>
			<path class="st5" d="M431.5,621.7h3.4v14.8h-3.4V621.7z"/>
			<path class="st5" d="M470.9,621.7v14.8h-2.8l-7.4-9v9h-3.4v-14.8h2.8l7.4,9v-9H470.9z"/>
			<path class="st5" d="M503.2,628.9h3.1v6c-1.6,1.2-3.9,1.9-6,1.9c-4.7,0-8.1-3.2-8.1-7.7s3.4-7.7,8.2-7.7c2.6,0,4.8,0.9,6.2,2.6
				l-2.2,2c-1.1-1.2-2.3-1.7-3.8-1.7c-2.9,0-4.8,1.9-4.8,4.7c0,2.8,2,4.7,4.8,4.7c0.9,0,1.8-0.2,2.7-0.6L503.2,628.9L503.2,628.9z"
				/>
			<path class="st5" d="M564.7,633.8v2.8h-11.5v-14.8h11.2v2.8h-7.8v3.2h6.9v2.7h-6.9v3.4L564.7,633.8L564.7,633.8z"/>
			<path class="st5" d="M614.1,624.5h-4.7v-2.8h12.9v2.8h-4.7v12h-3.4V624.5z"/>
			<path class="st5" d="M654.5,633.8v2.8H643v-14.8h11.2v2.8h-7.8v3.2h6.9v2.7h-6.9v3.4L654.5,633.8L654.5,633.8z"/>
			<path class="st5" d="M675,629.1c0-4.5,3.4-7.7,8-7.7c2.6,0,4.7,0.9,6.1,2.6l-2.2,2c-1-1.2-2.2-1.7-3.7-1.7c-2.8,0-4.7,2-4.7,4.7
				c0,2.8,2,4.7,4.7,4.7c1.5,0,2.7-0.6,3.7-1.8l2.2,2c-1.4,1.7-3.5,2.7-6.1,2.7C678.5,636.8,675,633.6,675,629.1z"/>
			<path class="st5" d="M723.9,621.7v14.8h-2.8l-7.4-9v9h-3.4v-14.8h2.8l7.4,9v-9H723.9z"/>
			<path class="st5" d="M745.3,629.1c0-4.4,3.4-7.7,8.1-7.7c4.7,0,8.1,3.2,8.1,7.7c0,4.4-3.5,7.7-8.1,7.7
				C748.8,636.8,745.3,633.5,745.3,629.1z M758.1,629.1c0-2.8-2-4.7-4.6-4.7c-2.7,0-4.6,1.9-4.6,4.7c0,2.8,2,4.7,4.6,4.7
				C756.1,633.9,758.1,631.9,758.1,629.1z"/>
			<path class="st5" d="M782.9,621.7h3.4v12h7.4v2.8h-10.9V621.7z"/>
			<path class="st5" d="M813.4,629.1c0-4.4,3.4-7.7,8.1-7.7s8.1,3.2,8.1,7.7c0,4.4-3.5,7.7-8.1,7.7
				C816.8,636.8,813.4,633.5,813.4,629.1z M826.1,629.1c0-2.8-2-4.7-4.6-4.7c-2.7,0-4.6,1.9-4.6,4.7c0,2.8,2,4.7,4.6,4.7
				C824.1,633.9,826.1,631.9,826.1,629.1z"/>
			<path class="st5" d="M861,628.9h3.1v6c-1.6,1.2-3.9,1.9-6,1.9c-4.7,0-8.1-3.2-8.1-7.7s3.4-7.7,8.2-7.7c2.6,0,4.8,0.9,6.2,2.6
				l-2.2,2c-1.1-1.2-2.3-1.7-3.8-1.7c-2.9,0-4.8,1.9-4.8,4.7c0,2.8,2,4.7,4.8,4.7c0.9,0,1.8-0.2,2.7-0.6L861,628.9L861,628.9z"/>
			<path class="st5" d="M886.2,621.7h3.4v14.8h-3.4V621.7z"/>
			<path class="st5" d="M921.7,633.3h-6.9l-1.3,3.2H910l6.6-14.8h3.4l6.6,14.8H923L921.7,633.3z M920.6,630.8l-2.3-5.7l-2.3,5.7
				H920.6z"/>
		</g>
	</g>
	<g>
		<path class="st6" d="M70,408.3v-52.5h22.1c8.4,0,15.3,2.4,20.5,7.3c5.2,4.8,7.8,11.2,7.8,19s-2.6,14.1-7.8,19
			c-5.2,4.8-12,7.3-20.5,7.3L70,408.3L70,408.3z M77.5,401.8h14.2c6.4,0,11.6-1.8,15.5-5.4c3.9-3.6,5.8-8.4,5.8-14.3
			c0-5.9-1.9-10.7-5.8-14.3c-3.9-3.6-9-5.4-15.5-5.4H77.5V401.8z"/>
		<path class="st6" d="M187.7,388.7c0,0.5-0.1,1.3-0.2,2.2h-32.2c0.4,3.5,2,6.3,4.6,8.4c2.6,2.1,5.9,3.2,9.8,3.2
			c4.7,0,8.6-1.6,11.5-4.8l4,4.6c-3.7,4.3-8.9,6.4-15.7,6.4c-6.3,0-11.5-1.9-15.4-5.7s-5.9-8.7-5.9-14.6c0-5.8,1.9-10.7,5.7-14.5
			c3.8-3.8,8.5-5.7,14.3-5.7s10.4,1.9,14.1,5.7C185.8,377.6,187.7,382.6,187.7,388.7z M176.7,377.5c-2.3-2.1-5.2-3.2-8.6-3.2
			c-3.4,0-6.3,1.1-8.6,3.1c-2.3,2.1-3.7,4.8-4.1,8.2h25.5C180.4,382.3,179,379.6,176.7,377.5z"/>
		<path class="st6" d="M229.9,408.7c-3.2,0-6.4-0.4-9.4-1.3c-3-0.9-5.3-2-7-3.3l3-5.7c3.8,2.8,8.5,4.1,13.9,4.1
			c6.3,0,9.5-1.8,9.5-5.4c0-1.4-0.6-2.5-1.9-3.3c-1.2-0.8-2.8-1.3-4.6-1.6s-3.9-0.6-6-1.1s-4.2-1-6-1.6c-1.9-0.6-3.4-1.8-4.6-3.4
			c-1.2-1.6-1.9-3.7-1.9-6.1c0-3.6,1.5-6.5,4.5-8.6c3-2.2,7-3.3,12.1-3.3c5.9,0,10.8,1.2,14.5,3.6l-3.1,5.7
			c-3.2-2.1-7.1-3.1-11.5-3.1c-3,0-5.4,0.5-7,1.5c-1.6,1-2.4,2.3-2.4,4c0,1.7,0.9,3,2.6,3.9c1.7,0.9,3.8,1.5,6.3,1.9
			c2.5,0.4,4.9,0.8,7.4,1.4c2.5,0.5,4.6,1.6,6.3,3.3s2.6,3.9,2.6,6.8c0,3.6-1.5,6.5-4.6,8.6C239.4,407.7,235.2,408.7,229.9,408.7z"
			/>
		<path class="st6" d="M312.9,388.7c0,0.5-0.1,1.3-0.2,2.2h-32.2c0.4,3.5,2,6.3,4.6,8.4c2.6,2.1,5.9,3.2,9.8,3.2
			c4.7,0,8.6-1.6,11.5-4.8l4,4.6c-3.7,4.3-8.9,6.4-15.7,6.4c-6.3,0-11.5-1.9-15.4-5.7c-3.9-3.8-5.9-8.7-5.9-14.6
			c0-5.8,1.9-10.7,5.7-14.5c3.8-3.8,8.5-5.7,14.3-5.7c5.7,0,10.4,1.9,14.1,5.7C311.1,377.6,312.9,382.6,312.9,388.7z M301.9,377.5
			c-2.3-2.1-5.2-3.2-8.6-3.2c-3.4,0-6.3,1.1-8.6,3.1c-2.3,2.1-3.7,4.8-4.1,8.2H306C305.6,382.3,304.3,379.6,301.9,377.5z"/>
		<path class="st6" d="M365,368.2c5,0,9.1,1.5,12,4.4c3,2.9,4.5,7.2,4.5,12.8v22.9h-7.2v-22c0-3.8-0.9-6.8-2.8-8.7
			c-1.9-2-4.5-2.9-7.9-2.9c-3.9,0-7,1.1-9.2,3.4c-2.2,2.3-3.4,5.5-3.4,9.8v20.5h-7.2v-39.7h6.9v6C353.7,370.3,358.5,368.2,365,368.2
			z"/>
		<path class="st6" d="M443.8,368.6h7l-17.4,39.7h-7.3l-17.4-39.7h7.5l13.6,31.8L443.8,368.6z"/>
		<path class="st6" d="M495.6,408.7c-6,0-10.9-1.9-14.8-5.7s-5.8-8.7-5.8-14.6c0-5.9,2-10.7,5.8-14.5c3.9-3.8,8.8-5.7,14.8-5.7
			c6,0,10.9,1.9,14.8,5.7c3.9,3.8,5.8,8.6,5.8,14.5c0,5.9-2,10.8-5.8,14.6S501.5,408.7,495.6,408.7z M495.6,402.4
			c3.8,0,7-1.3,9.5-3.9c2.5-2.6,3.8-6,3.8-10.2c0-4.2-1.2-7.6-3.7-10.1c-2.5-2.5-5.7-3.8-9.6-3.8c-3.9,0-7.1,1.3-9.6,3.8
			c-2.5,2.6-3.8,5.9-3.8,10.1s1.3,7.6,3.8,10.2C488.4,401.2,491.7,402.4,495.6,402.4z"/>
		<path class="st6" d="M547,408.3v-55.6h7.2v55.6L547,408.3L547,408.3z"/>
		<path class="st6" d="M617,368.6h7l-17.4,39.7h-7.3l-17.4-39.7h7.5l13.6,31.8L617,368.6z"/>
		<path class="st6" d="M658.7,359.5c-0.9,0.9-2.1,1.4-3.5,1.4s-2.6-0.4-3.5-1.3c-0.9-0.9-1.4-2-1.4-3.3s0.5-2.4,1.4-3.3
			c0.9-0.9,2.1-1.4,3.5-1.4c1.4,0,2.6,0.4,3.5,1.3c0.9,0.9,1.4,2,1.4,3.3C660.1,357.5,659.7,358.6,658.7,359.5z M651.7,408.3v-39.7
			h7.2v39.7H651.7z"/>
		<path class="st6" d="M723.8,352.7h7.2v55.6h-6.9V402c-3.2,4.5-8,6.8-14.2,6.8c-5.8,0-10.7-1.9-14.4-5.6s-5.7-8.6-5.7-14.7
			c0-6,1.9-10.9,5.7-14.6c3.8-3.7,8.6-5.6,14.4-5.6c6,0,10.6,2.1,13.9,6.4L723.8,352.7L723.8,352.7z M710.5,402.4
			c3.8,0,7-1.3,9.5-3.9c2.5-2.6,3.8-6,3.8-10.2c0-4.1-1.3-7.5-3.8-10.1s-5.7-3.9-9.5-3.9c-3.9,0-7.1,1.3-9.6,3.8s-3.8,5.9-3.8,10.1
			s1.3,7.6,3.8,10.2C703.4,401.2,706.6,402.4,710.5,402.4z"/>
		<path class="st6" d="M782.5,408.7c-6,0-10.9-1.9-14.8-5.7c-3.9-3.8-5.8-8.7-5.8-14.6c0-5.9,2-10.7,5.8-14.5
			c3.9-3.8,8.8-5.7,14.8-5.7c6,0,10.9,1.9,14.8,5.7c3.9,3.8,5.8,8.6,5.8,14.5c0,5.9-2,10.8-5.8,14.6
			C793.4,406.8,788.5,408.7,782.5,408.7z M782.5,402.4c3.8,0,7-1.3,9.5-3.9c2.5-2.6,3.8-6,3.8-10.2c0-4.2-1.2-7.6-3.7-10.1
			c-2.5-2.5-5.7-3.8-9.6-3.8c-3.9,0-7.1,1.3-9.6,3.8s-3.8,5.9-3.8,10.1s1.3,7.6,3.8,10.2C775.4,401.2,778.6,402.4,782.5,402.4z"/>
		<path class="st6" d="M875.6,368.2c5.8,0,10.7,1.9,14.4,5.6s5.7,8.6,5.7,14.6c0,6.1-1.9,10.9-5.7,14.7c-3.8,3.7-8.6,5.6-14.4,5.6
			c-6,0-10.6-2.1-13.9-6.4v20.5h-7.2v-54.3h6.9v6.3C864.7,370.4,869.4,368.2,875.6,368.2z M875,402.4c3.9,0,7.1-1.3,9.6-3.9
			c2.5-2.6,3.8-6,3.8-10.2c0-4.1-1.3-7.5-3.8-10.1s-5.7-3.9-9.6-3.9c-3.8,0-7,1.3-9.5,3.9c-2.5,2.6-3.8,5.9-3.8,10.1
			c0,4.2,1.3,7.6,3.8,10.2C868,401.2,871.2,402.4,875,402.4z"/>
		<path class="st6" d="M943.6,408.7c-6,0-10.9-1.9-14.8-5.7c-3.9-3.8-5.8-8.7-5.8-14.6c0-5.9,2-10.7,5.8-14.5
			c3.9-3.8,8.8-5.7,14.8-5.7s10.9,1.9,14.8,5.7c3.9,3.8,5.8,8.6,5.8,14.5c0,5.9-2,10.8-5.8,14.6
			C954.5,406.8,949.5,408.7,943.6,408.7z M943.6,402.4c3.8,0,7-1.3,9.5-3.9c2.5-2.6,3.8-6,3.8-10.2c0-4.2-1.2-7.6-3.7-10.1
			c-2.5-2.5-5.7-3.8-9.6-3.8s-7.1,1.3-9.6,3.8c-2.5,2.6-3.8,5.9-3.8,10.1s1.3,7.6,3.8,10.2C936.5,401.2,939.7,402.4,943.6,402.4z"/>
		<path class="st6" d="M1002,375.2c2.6-4.7,7.4-7,14.5-7v7c-0.4-0.1-1-0.1-1.6-0.1c-3.9,0-7,1.2-9.2,3.5c-2.2,2.3-3.3,5.6-3.3,9.9
			v19.8h-7.2v-39.7h6.9L1002,375.2L1002,375.2z"/>
	</g>
</g>
</svg>
