<?xml version="1.0" encoding="utf-8"?>
<!-- Generator: Adobe Illustrator 25.2.1, SVG Export Plug-In . SVG Version: 6.00 Build 0)  -->
<svg version="1.1" id="Layer_1" xmlns="http://www.w3.org/2000/svg" xmlns:xlink="http://www.w3.org/1999/xlink" x="0px" y="0px"
	 viewBox="0 0 54.3 54.2" style="enable-background:new 0 0 54.3 54.2;" xml:space="preserve">
<style type="text/css">
	.st0{fill:#CD152D;}
</style>
<path id="Caminho_1" class="st0" d="M43.6,27.1c0.2,9.1-7,16.5-16.1,16.7s-16.5-7-16.7-16.1c0-0.2,0-0.4,0-0.6
	c0-0.5,0.4-0.8,0.8-0.8l0,0h2.2c0.5,0,0.8,0.4,0.8,0.8l0,0c0,6.9,5.6,12.6,12.5,12.7c6.9,0.1,12.6-5.5,12.7-12.4c0-0.1,0-0.2,0-0.2
	c0-0.5,0.4-0.8,0.8-0.8h2.2C43.2,26.3,43.6,26.6,43.6,27.1 M41.7,20.4c-0.1,0.2-0.4,0.4-0.7,0.4h-2.5c-0.3,0-0.5-0.1-0.7-0.4
	c-1.9-3.1-5.1-5.1-8.6-5.7v16.2c0,0.5-0.4,0.8-0.8,0.8l0,0h-2.3c-0.5,0-0.8-0.4-0.8-0.8l0,0V14.7c-3.6,0.6-6.7,2.7-8.6,5.7
	c-0.2,0.2-0.4,0.4-0.7,0.4h-2.6c-0.5,0-0.8-0.4-0.8-0.8c0-0.1,0-0.3,0.1-0.4c4.1-8,14-11.2,22.1-7.1c3,1.6,5.5,4,7.1,7.1
	C41.9,19.8,41.9,20.2,41.7,20.4 M47.2,27.1c0-11-9-20-20-20s-20,9-20,20s9,20,20,20S47.2,38.1,47.2,27.1"/>
</svg>
