<?xml version="1.0" encoding="utf-8"?>
<!-- Generator: Adobe Illustrator 24.0.3, SVG Export Plug-In . SVG Version: 6.00 Build 0)  -->
<svg version="1.1" id="Layer_1" xmlns="http://www.w3.org/2000/svg" xmlns:xlink="http://www.w3.org/1999/xlink" x="0px" y="0px"
	 viewBox="0 0 180 40" style="enable-background:new 0 0 180 40;" xml:space="preserve">
<style type="text/css">
	.st0{fill:#FFFFFF;}
</style>
<path id="Caminho_1" class="st0" d="M109.1,18.8H108c-1.3-1.7-3.2-2.9-5.3-3.2l-0.8-0.1v13.2h-1V15.4l-0.8,0.1
	c-2.1,0.4-4,1.5-5.3,3.2h-1.1c2.7-4.3,8.4-5.6,12.7-2.8C107.4,16.7,108.4,17.7,109.1,18.8 M110.8,19.8c0.2-0.4,0.2-0.9,0-1.3
	c-2.9-5.2-9.5-7.1-14.7-4.2c-1.8,1-3.3,2.5-4.2,4.2c-0.2,0.4-0.2,0.9,0,1.3c0.2,0.4,0.6,0.6,1.1,0.6h1.9c0.4,0,0.8-0.2,1-0.5
	c0.8-1.1,1.9-1.9,3.1-2.4l0.2-0.1V29c0,0.7,0.6,1.3,1.3,1.3h1.6c0.7,0,1.3-0.6,1.3-1.3V17.4l0.2,0.1c1.3,0.5,2.3,1.3,3.1,2.4
	c0.2,0.3,0.6,0.5,1,0.5h1.9C110.1,20.4,110.6,20.2,110.8,19.8 M117,19.5l0.2-0.3c0.8-1.3,2.2-2.1,3.7-2.1c1.4,0,2.7,0.6,3.6,1.6
	c0.1,0.2,0.3,0.4,0.4,0.6l0.1,0.2L117,19.5z M114.9,21.1h12.2l-0.1-0.8c-0.2-0.9-0.6-1.8-1.2-2.5c-1.2-1.4-3-2.2-4.8-2.2
	c-2.1,0-4,1.1-5.1,2.9c-0.4,0.6-0.6,1.2-0.8,1.9L114.9,21.1z M128.1,22.1H115l0.1,0.8c0.2,0.9,0.6,1.8,1.2,2.5
	c1.2,1.4,2.9,2.2,4.7,2.2c1.5,0,2.9-0.5,4-1.5l0.7,0.7c-1.2,1.1-2.7,1.7-4.4,1.8h-0.7c-2-0.1-3.9-1-5.1-2.6
	c-0.9-1.1-1.5-2.6-1.5-4.1v-0.8c0.2-3.6,3.1-6.5,6.7-6.6h0.8c2,0.1,4,1.1,5.2,2.7c0.9,1.1,1.4,2.5,1.4,3.9L128.1,22.1z M129.3,23.2
	c0.2-0.2,0.3-0.5,0.3-0.8v-1.2c-0.1-1.8-0.7-3.4-1.8-4.9l-0.1-0.1c-1.5-2-3.9-3.2-6.4-3.3h-0.7c-2,0.1-3.8,0.8-5.3,2.1l-0.1,0
	c-1.8,1.5-2.8,3.7-2.9,6v0.8c0.2,4.5,3.8,8.1,8.3,8.3h0.7c2.2,0,4.2-0.9,5.8-2.5c0.5-0.4,0.5-1.2,0-1.6c0,0,0,0,0,0l-1.2-1.2
	c-0.2-0.2-0.6-0.3-0.9-0.3c-0.3,0-0.6,0.1-0.8,0.3c-0.9,0.8-2,1.3-3.2,1.3c-1.3,0-2.6-0.6-3.5-1.6c-0.1-0.2-0.3-0.4-0.4-0.6
	l-0.1-0.2h11.3c0.3,0,0.6-0.1,0.8-0.3L129.3,23.2z M146.8,21.2h-1c0-0.2-0.1-0.5-0.1-1l0-0.1c-0.4-1.4-1.2-2.7-2.5-3.5
	c-1.1-0.7-2.3-1.1-3.6-1.1c-2.3,0-4.3,1.3-5.3,3.3c-0.5,1-0.7,2.2-0.7,3.4v6.5h-1v-7.5c0.2-3.6,3.1-6.5,6.7-6.7h0.8
	c2.1,0.1,4,1.1,5.2,2.7C146.3,18.4,146.8,19.7,146.8,21.2L146.8,21.2z M148.1,22.3c0.2-0.2,0.3-0.5,0.3-0.8v-0.4
	c-0.1-1.8-0.7-3.5-1.8-4.9l-0.1-0.1c-1.5-2-3.9-3.2-6.4-3.3h-0.8c-2,0.1-3.9,0.8-5.4,2.2c-1.8,1.5-2.8,3.7-2.9,6.1V29
	c0,0.3,0.1,0.6,0.3,0.8l0.1,0.1c0.2,0.2,0.5,0.3,0.8,0.3h1.6c0.3,0,0.6-0.1,0.8-0.3l0.1-0.1c0.2-0.2,0.3-0.5,0.3-0.8v-6.8
	c0-0.9,0.1-1.7,0.4-2.5c0.7-1.5,2.3-2.5,4-2.5c1,0,1.9,0.3,2.7,0.8c0.9,0.6,1.5,1.5,1.8,2.6c0.1,1.5,0.3,2.3,1.4,2.3h1.6
	c0.3,0,0.6-0.1,0.8-0.3L148.1,22.3z M172.7,19.7v8.9h-0.9v-8.7c0-0.6-0.2-1.2-0.4-1.7c-0.5-1.1-1.4-1.9-2.4-2.3
	c-0.6-0.2-1.2-0.3-1.8-0.3c-0.6,0-1.3,0.1-1.8,0.4c-1.1,0.5-1.9,1.3-2.4,2.4c-0.2,0.6-0.4,1.2-0.4,1.8v8.6h-0.8v-7.4
	c0-0.8-0.1-1.6-0.3-2.3c-0.2-0.7-0.5-1.4-1.1-2c-0.4-0.4-0.9-0.7-1.4-1c-0.6-0.3-1.3-0.4-2-0.4c-1.2,0-2.4,0.5-3.3,1.3
	c-0.8,0.9-1.3,2-1.4,3.2v8.6h-0.9v-9.4c0.1-0.6,0.2-1.1,0.5-1.7c0.3-0.5,0.6-1,1-1.4c0.4-0.4,0.9-0.8,1.4-1.1
	c0.5-0.3,1.1-0.5,1.8-0.5c0.2,0,0.5,0,0.7,0c0.3,0,0.7,0,1,0.1c0.5,0.1,1,0.2,1.4,0.4c0.4,0.2,0.8,0.5,1.2,0.8c0.4,0.3,0.7,0.6,1,1
	c0.1,0.2,0.3,0.3,0.5,0.3c0.2,0,0.4-0.1,0.6-0.2c0.3-0.4,0.6-0.7,1-1c0.3-0.3,0.7-0.5,1.1-0.7c0.4-0.2,0.9-0.4,1.4-0.5
	c0.4-0.1,0.8-0.1,1.2-0.1c0.2,0,0.4,0,0.6,0c0.5,0,1,0.2,1.5,0.4c0.5,0.2,0.9,0.5,1.3,0.8c0.4,0.3,0.7,0.7,1,1.1
	c0.3,0.4,0.5,0.8,0.7,1.3C172.5,18.6,172.7,19.2,172.7,19.7 M174.3,29.3v-9.7c0,0,0-0.1,0-0.1c-0.1-0.7-0.2-1.4-0.5-2.1
	c-0.2-0.6-0.5-1.1-0.9-1.6c-0.4-0.5-0.8-1-1.3-1.4c-0.5-0.4-1.1-0.8-1.7-1c-0.6-0.3-1.3-0.4-2-0.5c-0.2,0-0.5,0-0.7,0
	c-0.5,0-1,0-1.5,0.1c-0.6,0.1-1.2,0.3-1.8,0.6c-0.5,0.3-1,0.6-1.5,1c-0.1,0.1-0.3,0.2-0.4,0.3l-0.1,0.1L162,15
	c-0.1-0.1-0.3-0.2-0.4-0.4c-0.5-0.4-1-0.7-1.5-1c-0.6-0.3-1.2-0.5-1.8-0.6c-0.4-0.1-0.9-0.1-1.3-0.1c-0.3,0-0.6,0-0.9,0
	c-0.8,0.1-1.7,0.3-2.4,0.7c-0.6,0.4-1.2,0.8-1.8,1.3c-0.5,0.5-0.9,1.1-1.3,1.7c-0.4,0.7-0.7,1.6-0.7,2.4v10.1c0,0.5,0.4,0.9,0.9,0.9
	h2.3c0.5,0,0.9-0.4,0.9-0.9l0-9.2c0-0.8,0.4-1.6,0.9-2.2c0.6-0.6,1.3-0.9,2.1-0.8c0.4,0,0.8,0.1,1.2,0.3c0.3,0.2,0.7,0.4,0.9,0.7
	c0.3,0.3,0.6,0.8,0.6,1.2c0.2,0.7,0.2,1.3,0.3,2v8.1c0,0.5,0.4,0.9,0.9,0.9h2.3c0.5,0,0.9-0.4,0.9-0.9v-9.2c0-0.4,0.1-0.9,0.3-1.2
	c0.1-0.4,0.4-0.7,0.6-0.9c0.6-0.6,1.3-0.9,2.1-0.9c0.4,0,0.8,0.1,1.2,0.2c0.4,0.1,0.7,0.4,0.9,0.6c0.3,0.3,0.5,0.6,0.6,0.9
	c0.2,0.4,0.3,0.7,0.3,1.1v9.4c0,0.5,0.4,0.9,0.9,0.9h2.3C173.9,30.2,174.3,29.8,174.3,29.3 M178.4,12.4h-1v-1.3h1V12.4z M179.6,13.4
	c0.2-0.2,0.4-0.5,0.3-0.8v-1.5c0-0.3-0.1-0.6-0.3-0.8l-0.1-0.1c-0.2-0.2-0.5-0.4-0.8-0.4h-1.6c-0.3,0-0.6,0.1-0.8,0.4l-0.1,0.1
	c-0.2,0.2-0.3,0.5-0.3,0.8v1.5c0,0.3,0.1,0.6,0.3,0.8l0.1,0.1c0.2,0.2,0.5,0.4,0.8,0.4h1.6c0.3,0,0.6-0.1,0.8-0.4L179.6,13.4z
	 M178.4,16.5v12.1h-1V16.5L178.4,16.5z M180,28.9V16.2c0-0.3-0.1-0.6-0.3-0.8l-0.1-0.1c-0.2-0.2-0.5-0.4-0.8-0.4h-1.6
	c-0.3,0-0.6,0.1-0.8,0.3l-0.1,0.1c-0.2,0.2-0.3,0.5-0.3,0.8v12.7c0,0.3,0.1,0.6,0.3,0.8l0.1,0.1c0.2,0.2,0.5,0.3,0.8,0.3h1.6
	c0.3,0,0.6-0.1,0.8-0.4l0.1-0.1C179.9,29.5,180,29.2,180,28.9 M65.7,13.2l-0.1-0.1c-0.1-0.1-0.3-0.2-0.5-0.2h-1.6
	c-0.2,0-0.4,0.1-0.5,0.2l-0.1,0.1c-0.1,0.1-0.2,0.3-0.2,0.5v7.6c0,0.7-0.1,1.4-0.3,2c-1.1,2.3-2.6,3.4-4.8,3.4c-1.1,0-2.2-0.3-3.1-1
	c-1.4-0.9-2.1-2.3-2.1-4.6v-7.3c0-0.2-0.1-0.4-0.2-0.5L52,13.1c-0.1-0.1-0.3-0.2-0.5-0.2h-1.6c-0.2,0-0.4,0.1-0.5,0.2l-0.1,0.1
	c-0.1,0.1-0.2,0.3-0.2,0.5v8.4c0.1,1.7,0.7,3.4,1.8,4.7c1.5,1.9,3.8,3.1,6.3,3.2h0.8c1.5-0.1,3-0.6,4.3-1.4c2.5-1.9,3.7-4,3.7-6.5
	v-8.4C65.9,13.6,65.9,13.4,65.7,13.2 M87,12.7c0.1,0.1,0.3,0.2,0.5,0.2h1.6c0.2,0,0.4-0.1,0.5-0.2l0.1-0.1c0.1-0.1,0.2-0.3,0.2-0.5
	v-1.5c0-0.2-0.1-0.4-0.2-0.5L89.7,10c-0.1-0.1-0.3-0.2-0.5-0.2h-1.6c-0.2,0-0.4,0.1-0.5,0.2l-0.1,0.1c-0.1,0.1-0.2,0.3-0.2,0.5v1.5
	c0,0.2,0.1,0.4,0.2,0.5L87,12.7z M89.8,14.7l-0.1-0.1c-0.1-0.1-0.3-0.2-0.5-0.2h-1.6c-0.2,0-0.4,0.1-0.5,0.2L87,14.7
	c-0.1,0.1-0.2,0.3-0.2,0.5v14.1c0,0.2,0.1,0.4,0.2,0.5l0.1,0.1c0.1,0.1,0.3,0.2,0.5,0.2h1.6c0.2,0,0.4-0.1,0.5-0.2l0.1-0.1
	c0.1-0.1,0.2-0.3,0.2-0.5V15.3C90,15.1,90,14.9,89.8,14.7 M83,16.1c1.1,1.4,1.8,3.1,1.8,4.9v8.3c0,0.2-0.1,0.4-0.2,0.5L84.5,30
	c-0.1,0.1-0.3,0.2-0.5,0.2h-1.6c-0.2,0-0.4-0.1-0.5-0.2l-0.1-0.1c-0.1-0.1-0.2-0.3-0.2-0.5v-7.3c0-2.3-0.7-3.9-2.1-4.8
	c-0.9-0.7-2-1.1-3.1-1c-2.2,0-3.7,1.1-4.8,3.4c-0.2,0.7-0.3,1.5-0.3,2.2v7.5c0,0.2-0.1,0.4-0.2,0.5L70.9,30
	c-0.1,0.1-0.3,0.2-0.5,0.2h-1.6c-0.2,0-0.4-0.1-0.5-0.2l-0.1-0.1c-0.1-0.1-0.2-0.3-0.2-0.5V21c0-2.5,1.2-4.7,3.7-6.7
	c1.3-0.9,2.8-1.3,4.3-1.4h0.8C79.2,13,81.5,14.2,83,16.1 M36.4,20c0.2,9.1-7,16.5-16.1,16.7c-9.1,0.2-16.5-7-16.7-16.1
	c0-0.2,0-0.4,0-0.6c0-0.5,0.4-0.8,0.8-0.8c0,0,0,0,0,0h2.2c0.5,0,0.8,0.4,0.8,0.8l0,0C7.4,26.9,13,32.6,19.9,32.7
	c6.9,0.1,12.6-5.5,12.7-12.4c0-0.1,0-0.2,0-0.2c0-0.5,0.4-0.8,0.8-0.8h2.2C36,19.2,36.4,19.5,36.4,20 M34.5,13.3
	c-0.1,0.2-0.4,0.4-0.7,0.4h-2.5c-0.3,0-0.5-0.1-0.7-0.4c-1.9-3.1-5.1-5.1-8.6-5.7v16.2c0,0.5-0.4,0.8-0.8,0.8c0,0,0,0,0,0h-2.3
	c-0.5,0-0.8-0.4-0.8-0.8c0,0,0,0,0,0V7.6c-3.6,0.6-6.7,2.7-8.6,5.7c-0.2,0.2-0.4,0.4-0.7,0.4H6.2c-0.5,0-0.8-0.4-0.8-0.8
	c0-0.1,0-0.3,0.1-0.4c4.1-8,14-11.2,22.1-7.1c3,1.6,5.5,4,7.1,7.1C34.7,12.7,34.7,13.1,34.5,13.3 M40,20c0-11-9-20-20-20S0,9,0,20
	s9,20,20,20C31,40,40,31,40,20"/>
</svg>
