<?xml version="1.0" encoding="utf-8"?>
<!-- Generator: Adobe Illustrator 25.2.1, SVG Export Plug-In . SVG Version: 6.00 Build 0)  -->
<svg version="1.1" id="Camada_1" xmlns="http://www.w3.org/2000/svg" xmlns:xlink="http://www.w3.org/1999/xlink" x="0px" y="0px"
	 viewBox="0 0 1080 1080" style="enable-background:new 0 0 1080 1080;" xml:space="preserve">
<style type="text/css">
	.st0{opacity:0.95;fill:#C0292E;enable-background:new    ;}
	.st1{fill:#C0292E;}
</style>
<g>
	<path class="st0" d="M312.5,678c-13.4-15.3-28.7-23-45.3-23h-5.7c-9.4,0-19.8,3.4-31.3,10.2c-17.7,14-26.7,30.1-26.7,48.1v60.1
		c0,1.4,0.6,2.8,1.6,3.8l0.8,0.8c1,1,2.4,1.6,3.8,1.6h11.7c1.4,0,2.8-0.6,3.8-1.5l0.7-0.8c1-1,1.6-2.4,1.6-3.8V719
		c0-6.5,0.8-12.1,2.1-15.9c7.8-16.5,18.8-24.2,34.5-24.2c8.8,0,16.2,2.4,22.4,7.5c9.9,6.5,15,18.1,15,34.5v52.5
		c0,1.4,0.6,2.8,1.6,3.8l0.8,0.8c1,1,2.4,1.5,3.8,1.5h11.7c1.4,0,2.8-0.6,3.8-1.5l0.8-0.8c1-1,1.6-2.4,1.6-3.8v-60.1
		C325.5,701.6,321.2,689.8,312.5,678"/>
	<path class="st0" d="M361.9,668.1l-0.8-0.8c-1-1-2.4-1.6-3.8-1.6h-11.7c-1.4,0-2.8,0.6-3.8,1.6l-0.7,0.7c-1,1-1.6,2.4-1.6,3.8
		v101.5c0,1.4,0.6,2.8,1.6,3.8l0.8,0.8c1,1,2.4,1.5,3.8,1.5h11.7c1.4,0,2.8-0.6,3.8-1.6l0.8-0.8c1-1,1.5-2.3,1.5-3.8V671.9
		C363.5,670.5,362.9,669.2,361.9,668.1"/>
	<path class="st0" d="M341.8,653.4c1,1,2.4,1.6,3.8,1.6h11.7c1.4,0,2.8-0.6,3.8-1.6l0.8-0.8c1-1,1.6-2.4,1.6-3.8v-10.6
		c0-1.4-0.5-2.8-1.6-3.8l-0.8-0.8c-1-1-2.4-1.6-3.8-1.6h-11.7c-1.4,0-2.8,0.5-3.8,1.6l-0.8,0.8c-1,1-1.6,2.4-1.6,3.8v10.6
		c0,1.4,0.6,2.8,1.6,3.8L341.8,653.4z"/>
	<path class="st0" d="M188,657.3l-0.8-0.8c-1-1-2.4-1.6-3.8-1.6h-11.7c-1.4,0-2.8,0.6-3.8,1.6l-0.7,0.7c-1,1-1.6,2.4-1.6,3.8v54.7
		c0,6.5-0.8,11-2.1,14.8c-7.8,16.5-18.8,24.2-34.5,24.2c-8.8,0-16.2-2.5-22.4-7.5c-9.9-6.5-15-17-15-33.4v-52.8
		c0-1.4-0.6-2.8-1.6-3.8l-0.8-0.8c-1-1-2.4-1.6-3.8-1.6H73.6c-1.4,0-2.8,0.6-3.8,1.6l-0.8,0.7c-1,1-1.6,2.4-1.6,3.8v60.4
		c0,11.7,4.3,22.4,13.1,34.2c13.4,15.3,28.7,23,45.3,23h5.7c9.3,0,19.8-3.4,31.3-10.2c17.7-13.9,26.7-29,26.7-47v-60.4
		C189.5,659.7,189,658.3,188,657.3"/>
	<path class="st0" d="M493,697.3c-9.2-12.3-23.1-20.8-38.2-23.3l-6-1v95.3h-7.2v-95.3l-6,1c-15.1,2.5-29,10.9-38.2,23.3h-8.1
		c12.2-19,33.5-30.8,56-30.8c22.5,0,43.9,11.8,56,30.8H493z M513.3,695.2c-13.8-24.8-40-40.2-68.2-40.2s-54.4,15.4-68.2,40.2
		c-1.6,2.8-1.5,6.3,0.1,9.2c1.7,2.8,4.7,4.5,8,4.5h13.5c3,0,5.9-1.4,7.5-3.9c5.6-7.8,13.4-13.8,22.5-17.2l1.5-0.6v83.4
		c0,5.1,4.1,9.2,9.2,9.2H451c5.1,0,9.2-4.2,9.2-9.2v-83.4l1.5,0.6c9.1,3.4,16.9,9.3,22.5,17.2c1.7,2.4,4.5,3.9,7.5,3.9h13.5
		c3.3,0,6.3-1.8,8-4.6C514.9,701.5,514.9,698,513.3,695.2z"/>
	<path class="st0" d="M558.4,702.4l1.2-2.1c7.4-10.6,16-15.5,26.9-15.5c10.2,0,18.6,3.8,25.9,11.8c1,1.5,1.9,2.8,2.7,4.2l1,1.7
		H558.4z M586.5,673.5c-14.9,0-26.9,6.8-36.6,20.8c-3,5.4-4.9,9.9-5.6,13.4l-1.2,6.1h88.1l-1-6c-0.8-4.9-3.8-10.9-8.8-18.3
		C611.6,678.7,600.2,673.5,586.5,673.5z"/>
	<path class="st0" d="M638,721h-94.8l1,6c0.9,4.9,3.7,10.9,8.8,18.2c9.5,10.9,20.7,16.1,34.1,16.1c10.4,0,20.1-3.6,28.9-10.8
		l4.8,4.8c-9.8,8.5-20.4,12.9-31.5,12.9h-4.8c-13.5,0-26-6.4-37.2-19c-7.3-9.7-11.1-19.5-11.1-29.2v-5.5c0-12.2,5.8-24.2,17.2-35.4
		c10.2-8.2,20.7-12.5,31-12.5h5.5c13.3,0,25.9,6.6,37.5,19.7c6.9,10,10.4,19.6,10.4,28.2L638,721L638,721z M636.7,679.5l-0.4-0.5
		c-13.9-15.7-29.4-23.7-46.2-23.7h-5.5c-13,0-26,5.1-38.4,15.2l-0.4,0.3c-13.8,13.5-20.8,28.2-20.8,43.7v5.5
		c0,12.2,4.7,24.6,13.8,36.7c13.5,15.2,28.9,22.9,45.8,22.9h4.8c15,0,29-6.1,41.6-18c1.6-1.5,2.6-3.7,2.6-6c0-2.2-0.8-4.5-2.4-6
		l-8.8-8.8c-2.3-2.3-5.4-2.4-6.3-2.4c-2,0-4,0.8-5.6,2.1c-7.1,6.4-15,9.6-23.3,9.6c-9.9,0-18.1-3.8-25.2-11.7
		c-1-1.5-1.9-2.9-2.7-4.2l-1-1.7h81.9c2.2,0,4.3-0.8,5.9-2.4l0.8-0.8c1.6-1.6,2.5-3.7,2.5-5.9v-8.8
		C649.4,703.5,645.1,691.7,636.7,679.5z"/>
	<path class="st0" d="M773.3,714.8l-7.1,0c-0.2-1.2-0.5-3.5-0.9-7.4l-0.1-0.7c-3.7-11.8-9.7-20.4-17.8-25.5
		c-7.8-5.2-16.6-7.8-25.9-7.8c-16.2,0-28.8,7.8-38.6,24c-3.2,6.1-4.8,14.2-4.8,24.2l0,47h-6.9v-53.9c0-12.3,5.8-24.3,17.3-35.5
		c10.2-8.3,20.7-12.5,31.1-12.5h5.5c13.3,0,26,6.6,37.6,19.7c6.9,10.1,10.4,19.6,10.4,28.3L773.3,714.8L773.3,714.8z M772,679.3
		l-0.4-0.5c-14-15.8-29.5-23.8-46.3-23.8h-5.5c-13.1,0-26.2,5.3-38.9,15.6C667,684.2,660,698.9,660,714.4v56.2
		c0,2.2,0.9,4.3,2.4,5.9l0.7,0.7c1.6,1.6,3.7,2.5,6,2.5h11.4c2.3,0,4.4-0.9,6-2.5l0.7-0.7c1.6-1.6,2.5-3.7,2.5-5.9v-49.2
		c0-7.9,1.1-14.4,3.2-18.4c7.7-12.5,16.8-18.4,28.8-18.4c7,0,13.7,2,19.7,6c5.6,3.6,9.9,9.8,12.8,18.6c1,10.5,2.2,16.9,10.1,16.9
		h11.4c2.3,0,4.4-0.9,6-2.5l0.7-0.7c1.6-1.6,2.5-3.7,2.5-5.9v-2.6C784.7,703.3,780.4,691.5,772,679.3z"/>
	<path class="st0" d="M1000.9,768.1h-7.3l0-87.1h7.3L1000.9,768.1z M1010,672.8l-0.8-0.8c-1.6-1.6-3.8-2.5-6.1-2.5h-11.7
		c-2.3,0-4.5,0.9-6.1,2.5l-0.8,0.8c-1.6,1.6-2.5,3.8-2.5,6.1v91.5c0,2.3,0.9,4.5,2.5,6.1l0.8,0.8c1.6,1.6,3.8,2.5,6.1,2.5h11.7
		c2.3,0,4.5-0.9,6.1-2.5l0.8-0.8c1.6-1.6,2.5-3.8,2.5-6.1v-91.5C1012.5,676.5,1011.6,674.4,1010,672.8z"/>
	<path class="st0" d="M1000.9,651.5h-7.3v-9.3h7.3V651.5z M1010,635.4l-0.8-0.8c-1.6-1.6-3.8-2.5-6.1-2.5h-11.7
		c-2.3,0-4.5,0.9-6.1,2.5l-0.8,0.8c-1.6,1.6-2.5,3.8-2.5,6.1v10.7c0,2.3,0.9,4.5,2.5,6.1l0.8,0.7c1.6,1.6,3.8,2.5,6.1,2.5h11.7
		c2.3,0,4.5-0.9,6.1-2.5l0.7-0.8c1.6-1.6,2.5-3.8,2.5-6.1v-10.7C1012.5,639.2,1011.6,637.1,1010,635.4z"/>
	<path class="st0" d="M959.8,768.1h-6.2v-63c-0.4-4.6-1.5-8.8-3.2-12.6c-1.8-3.9-4.2-7.3-7.2-10.2c-3-2.8-6.5-5.1-10.4-6.7
		c-3.9-1.6-8.3-2.5-12.9-2.5c-4.8,0-9.4,0.9-13.3,2.7c-3.9,1.8-7.4,4.1-10.2,7.1c-2.9,2.9-5.2,6.4-6.8,10.4
		c-1.7,3.9-2.7,8.1-3.1,12.7l0,62h-6.1v-53.5c-0.2-6.1-0.9-11.8-2.1-17c-1.4-5.7-4-10.5-7.7-14.2c-2.5-2.7-5.8-5.1-9.9-7.1
		c-4.2-2.1-8.9-3.1-14.1-3.1c-9.7,0.1-17.7,3.4-23.6,9.7c-5.8,6.1-9.1,13.8-9.9,22.9l0,62.3h-6.2l0-67.6c0.4-4.1,1.7-8.2,3.8-12
		c2.3-4,4.8-7.4,7.5-10.1c2.8-2.9,6.2-5.4,10.2-7.6c3.8-2.1,8.1-3.5,12.7-3.9c1.8-0.2,3.5-0.2,5.2-0.2c2.7,0,5.2,0.2,7.4,0.6
		c3.7,0.7,7.1,1.8,10.1,3.2c3,1.5,5.9,3.4,8.3,5.5c2.6,2.2,5,4.6,7.1,7.2c1,1.2,2.4,1.8,3.9,1.9c1.6,0,2.9-0.6,4-1.8
		c2.2-2.6,4.7-5,7.2-7.2c2.4-2,5.2-3.8,8.2-5.3c3-1.5,6.5-2.6,10.1-3.3c2.6-0.5,5.4-0.8,8.4-0.8c1.3,0,2.7,0,4,0.2
		c3.9,0.3,7.5,1.2,10.8,2.6c3.4,1.5,6.5,3.4,9.2,5.6c2.7,2.3,5.1,4.9,7.2,7.8c2,3,3.7,6.1,5,9.3c1.3,3.3,2.1,7,2.6,11.7L959.8,768.1
		z M971.4,703c-0.6-5.9-1.6-10.7-3.3-15c-1.5-4-3.7-7.9-6.2-11.7c-2.6-3.8-5.8-7.2-9.3-10.2c-3.6-3-7.6-5.5-12-7.4
		c-4.5-1.9-9.4-3.1-14.6-3.5c-1.7-0.1-3.3-0.2-4.9-0.2c-3.8,0-7.3,0.3-10.6,1c-4.6,0.9-9,2.3-13,4.2c-3.9,1.9-7.5,4.2-10.7,6.9
		c-0.9,0.8-1.9,1.6-2.8,2.5l-0.8,0.7l-0.8-0.7c-0.9-0.9-1.9-1.7-2.8-2.6c-3.2-2.8-6.8-5.1-10.7-7.1c-4-2-8.4-3.4-13.2-4.3
		c-3-0.5-6.1-0.8-9.3-0.8c-2.1,0-4.2,0.1-6.5,0.3c-6.2,0.7-12,2.5-17.2,5.3c-5,2.8-9.2,6-12.7,9.6c-3.4,3.4-6.5,7.6-9.3,12.6
		c-3,5.4-4.8,11.1-5.3,17.5v73c0,3.5,2.9,6.4,6.4,6.4h16.6c3.5,0,6.4-2.9,6.4-6.4l0-66.7c0.6-6.4,2.8-11.6,6.7-15.8
		c3.7-4,8.7-5.9,15.2-6c3.3,0,6.3,0.7,8.9,1.9c2.8,1.4,5,3,6.8,4.8c2.3,2.3,3.8,5.2,4.7,8.8c1,4.4,1.7,9.2,1.8,14.3v58.7
		c0,3.5,2.9,6.4,6.4,6.4h16.5c3.5,0,6.4-2.9,6.4-6.4l0-66.4c0.3-3.3,1-6.3,2.2-9c1.1-2.7,2.6-5,4.5-6.8c1.8-1.9,4.1-3.4,6.7-4.6
		c2.4-1,5.4-1.6,8.6-1.6c3.1,0,6.1,0.5,8.5,1.5c2.6,1.1,4.9,2.5,6.8,4.4c1.9,1.8,3.5,4,4.7,6.6c1.1,2.5,1.9,5.3,2.2,8.1v67.8
		c0,3.5,2.9,6.4,6.4,6.4H965c3.5,0,6.4-2.9,6.4-6.4v-69.7C971.4,703.4,971.4,703.2,971.4,703z"/>
	<path class="st0" d="M558.3,549.3c-98.6,0-178.9-80.2-178.9-178.9c0-5,4.1-9,9-9h23.8c5,0,9,4,9,9c0,75.5,61.5,137,137,137
		c75.6,0,137-61.5,137-137c0-5,4.1-9,9-9h23.7c5,0,9,4,9,9C737.2,469,656.9,549.3,558.3,549.3 M399.4,288.4
		c30.5-58.8,92.9-96.9,158.9-96.9c66,0,128.4,38,158.9,96.9c1.5,2.8,1.3,6.2-0.3,8.9c-1.6,2.7-4.6,4.4-7.7,4.4h-27.5
		c-3.1,0-6-1.6-7.7-4.2c-21.1-33.3-55.4-56-94.2-62.3v176.5c0,5-4,9-9,9h-25c-5,0-9-4-9-9V235.1c-38.7,6.2-73.1,28.9-94.2,62.3
		c-1.7,2.6-4.6,4.2-7.6,4.2h-27.5c-3.1,0-6.1-1.6-7.7-4.4C398.1,294.6,398,291.2,399.4,288.4z M558.3,152.2
		c-120.3,0-218.2,97.9-218.2,218.2S438,588.6,558.3,588.6s218.2-97.9,218.2-218.2S678.6,152.2,558.3,152.2z"/>
	<path class="st1" d="M400.5,215.6c39.6-39.6,94.4-64.2,154.7-64.2S670.4,176,710,215.6c39.7,39.6,64.2,94.4,64.2,154.7
		S749.6,485.5,710,525.1c-39.7,39.6-94.4,64.2-154.7,64.2c-60.4,0-115.1-24.6-154.7-64.2c-39.6-39.6-64.2-94.4-64.2-154.7
		C336.3,310,360.9,255.3,400.5,215.6 M555.3,153c-59.9,0-114.3,24.4-153.6,63.8c-39.4,39.4-63.8,93.7-63.8,153.6
		s24.4,114.3,63.8,153.7c39.4,39.4,93.7,63.8,153.6,63.8c59.9,0,114.3-24.4,153.7-63.8c39.4-39.4,63.8-93.7,63.8-153.6
		s-24.4-114.3-63.8-153.6C669.5,177.4,615.2,153,555.3,153z"/>
</g>
</svg>
